<?xml version="1.0" encoding="utf-8"?>
<!-- Generator: Adobe Illustrator 16.0.4, SVG Export Plug-In . SVG Version: 6.00 Build 0)  -->
<!DOCTYPE svg PUBLIC "-//W3C//DTD SVG 1.1//EN" "http://www.w3.org/Graphics/SVG/1.1/DTD/svg11.dtd">
<svg version="1.1" id="Layer_1" xmlns="http://www.w3.org/2000/svg" xmlns:xlink="http://www.w3.org/1999/xlink" x="0px" y="0px"
	 width="1285.766px" height="1164.411px" viewBox="0 0 1285.766 1164.411" enable-background="new 0 0 1285.766 1164.411"
	 xml:space="preserve">
<g>
	<path fill="#4D4D4D" d="M51.72,1112.692c-1.146-1.148-1.72-2.676-1.72-4.588v-187.76c0-1.908,0.573-3.484,1.72-4.729
		c1.146-1.242,2.675-1.863,4.586-1.863h5.16c2.101,0,3.727,0.572,4.873,1.719c1.146,1.148,1.72,2.773,1.72,4.875v83.703h110.648
		v-83.703c0-1.908,0.575-3.484,1.722-4.73c1.146-1.24,2.673-1.863,4.586-1.863h5.16c2.101,0,3.727,0.574,4.873,1.721
		c1.146,1.146,1.719,2.771,1.719,4.873v187.76c0,1.914-0.622,3.439-1.861,4.588c-1.246,1.146-2.822,1.721-4.729,1.721h-5.16
		c-1.913,0-3.438-0.574-4.586-1.721c-1.146-1.146-1.722-2.674-1.722-4.588v-86.855H68.059v86.855c0,1.914-0.623,3.439-1.862,4.588
		c-1.244,1.146-2.822,1.721-4.729,1.721h-5.16C54.395,1114.411,52.866,1113.836,51.72,1112.692z"/>
	<path fill="#4D4D4D" d="M244.064,1099.36c-11.086-11.939-17.392-27.947-18.919-48.016l-0.287-11.465l0.287-11.467
		c1.527-19.873,7.783-35.832,18.775-47.871c10.985-12.039,25.655-18.061,44.003-18.061c19.873,0,35.399,6.594,46.581,19.779
		c11.18,13.186,16.769,31.246,16.769,54.18v4.299c0,1.912-0.622,3.439-1.862,4.586c-1.245,1.146-2.822,1.721-4.729,1.721H242.632
		v2.865c0.38,8.986,2.436,17.344,6.163,25.084c3.726,7.738,8.931,13.951,15.622,18.633c6.688,4.686,14.521,7.021,23.507,7.021
		c10.506,0,19.062-2.051,25.653-6.162c6.595-4.107,11.324-8.264,14.189-12.471c1.722-2.293,3.011-3.727,3.87-4.301
		c0.858-0.57,2.437-0.857,4.729-0.857h4.587c1.722,0,3.153,0.479,4.302,1.434c1.146,0.957,1.719,2.199,1.719,3.725
		c0,4.016-2.535,8.844-7.596,14.479c-5.066,5.639-12.091,10.512-21.069,14.619c-8.985,4.105-19.112,6.162-30.385,6.162
		C269.765,1117.276,255.146,1111.307,244.064,1099.36z M333.787,1030.993v-1.146c0-14.713-4.155-26.846-12.469-36.404
		c-8.313-9.555-19.449-14.332-33.396-14.332c-13.953,0-24.989,4.777-33.11,14.332c-8.125,9.559-12.182,21.691-12.182,36.404v1.146
		H333.787z"/>
	<path fill="#4D4D4D" d="M398.34,1111.543c-7.838-3.82-14.097-8.979-18.776-15.479c-4.685-6.494-7.023-13.66-7.023-21.498
		c0-12.613,5.111-22.936,15.337-30.959c10.223-8.027,24.029-13.188,41.423-15.48l45.292-6.307v-10.033
		c0-10.506-3.203-18.584-9.604-24.225c-6.403-5.633-16.193-8.453-29.381-8.453c-9.747,0-17.728,1.91-23.936,5.73
		c-6.214,3.826-10.179,8.412-11.896,13.76c-0.766,2.293-1.675,3.869-2.723,4.73c-1.055,0.861-2.438,1.289-4.157,1.289h-4.014
		c-1.722,0-3.203-0.617-4.443-1.861c-1.244-1.242-1.863-2.725-1.863-4.443c0-4.201,1.908-9.125,5.732-14.766
		c3.822-5.633,9.748-10.555,17.772-14.762c8.026-4.201,17.867-6.307,29.526-6.307c20.446,0,34.972,4.873,43.571,14.619
		s12.898,21.6,12.898,35.545v95.457c0,1.912-0.573,3.439-1.72,4.588c-1.146,1.146-2.679,1.721-4.587,1.721h-4.872
		c-1.914,0-3.44-0.574-4.587-1.721s-1.72-2.676-1.72-4.588v-13.473c-4.207,6.307-10.369,11.658-18.49,16.053
		c-8.125,4.395-18.874,6.592-32.249,6.592C414.679,1117.276,406.175,1115.364,398.34,1111.543z M461.116,1086.891
		c8.981-9.174,13.475-22.359,13.475-39.557v-9.748l-36.979,5.16c-15.672,2.105-27.52,5.732-35.545,10.893
		c-8.027,5.16-12.04,11.66-12.04,19.492c0,8.793,3.677,15.578,11.036,20.354c7.354,4.779,15.908,7.166,25.654,7.166
		C440.666,1100.651,452.132,1096.065,461.116,1086.891z"/>
	<path fill="#4D4D4D" d="M527.906,1112.692c-1.146-1.148-1.72-2.676-1.72-4.588V917.192c0-1.908,0.573-3.441,1.72-4.59
		c1.146-1.145,2.674-1.719,4.586-1.719h4.873c1.908,0,3.44,0.574,4.587,1.719c1.146,1.148,1.721,2.682,1.721,4.59v190.912
		c0,1.912-0.573,3.439-1.721,4.588c-1.146,1.145-2.679,1.719-4.587,1.719h-4.873C530.58,1114.411,529.054,1113.836,527.906,1112.692
		z"/>
	<path fill="#4D4D4D" d="M604.728,1101.653c-5.924-8.5-8.885-20.209-8.885-35.113v-84.564h-22.359c-1.913,0-3.439-0.572-4.587-1.719
		c-1.146-1.146-1.72-2.676-1.72-4.588v-4.014c0-1.908,0.572-3.438,1.72-4.586c1.146-1.146,2.674-1.721,4.587-1.721h22.359v-48.156
		c0-1.908,0.571-3.441,1.719-4.588s2.675-1.721,4.587-1.721h4.873c1.908,0,3.44,0.574,4.587,1.721s1.719,2.68,1.719,4.588v48.156
		h35.546c1.908,0,3.44,0.574,4.588,1.721c1.146,1.146,1.72,2.678,1.72,4.586v4.014c0,1.912-0.573,3.441-1.72,4.588
		c-1.147,1.146-2.68,1.719-4.588,1.719h-35.546v83.418c0,10.703,1.767,18.775,5.306,24.221c3.532,5.447,9.408,8.172,17.63,8.172
		h15.479c1.908,0,3.439,0.574,4.586,1.721s1.721,2.678,1.721,4.584v4.014c0,1.914-0.573,3.441-1.721,4.59
		c-1.146,1.145-2.678,1.719-4.586,1.719h-16.913C620.683,1114.411,610.649,1110.161,604.728,1101.653z"/>
	<path fill="#4D4D4D" d="M684.646,1112.692c-1.146-1.148-1.719-2.676-1.719-4.588V917.192c0-1.908,0.571-3.441,1.719-4.59
		c1.146-1.145,2.676-1.719,4.587-1.719h4.874c1.907,0,3.439,0.574,4.586,1.719c1.146,1.148,1.719,2.682,1.719,4.59v67.936
		c5.734-7.451,12.278-13.088,19.638-16.91c7.354-3.82,16.862-5.734,28.521-5.734c18.729,0,33.154,5.977,43.284,17.916
		c10.129,11.945,15.194,27.377,15.194,46.297v81.408c0,1.912-0.573,3.439-1.722,4.588c-1.146,1.146-2.679,1.721-4.587,1.721h-4.872
		c-1.913,0-3.439-0.574-4.588-1.721c-1.146-1.146-1.719-2.676-1.719-4.588v-79.977c0-15.479-3.776-27.52-11.323-36.119
		c-7.551-8.6-18.396-12.898-32.536-12.898c-13.759,0-24.75,4.348-32.964,13.043c-8.219,8.697-12.328,20.688-12.328,35.977v79.977
		c0,1.912-0.571,3.439-1.719,4.588c-1.146,1.145-2.679,1.719-4.586,1.719h-4.874
		C687.321,1114.411,685.791,1113.836,684.646,1112.692z"/>
	<path fill="#4D4D4D" d="M931.451,1112.692c-1.146-1.148-1.721-2.676-1.721-4.588v-187.76c0-1.908,0.574-3.484,1.721-4.729
		c1.146-1.242,2.675-1.863,4.586-1.863h111.795c2.103,0,3.729,0.572,4.875,1.719c1.146,1.148,1.72,2.773,1.72,4.875v4.299
		c0,1.912-0.622,3.439-1.863,4.588c-1.245,1.146-2.821,1.719-4.729,1.719H947.791v73.1h93.735c2.101,0,3.728,0.572,4.874,1.719
		s1.72,2.773,1.72,4.873v4.301c0,1.912-0.623,3.439-1.863,4.588c-1.244,1.145-2.821,1.719-4.729,1.719h-93.734v75.965h102.334
		c2.102,0,3.728,0.572,4.873,1.719c1.146,1.146,1.722,2.773,1.722,4.873v4.301c0,1.912-0.622,3.439-1.864,4.588
		c-1.244,1.145-2.82,1.719-4.729,1.719H936.037C934.125,1114.411,932.599,1113.836,931.451,1112.692z"/>
	<path fill="#4D4D4D" d="M1107.198,1097.354c-12.711-13.281-19.062-33.488-19.062-60.627V920.344c0-1.908,0.572-3.484,1.72-4.729
		c1.147-1.242,2.674-1.863,4.586-1.863h5.161c2.1,0,3.726,0.572,4.872,1.719c1.146,1.148,1.72,2.773,1.72,4.875v117.242
		c0,21.023,4.873,36.689,14.619,47.012c9.747,10.318,23.506,15.479,41.278,15.479c17.579,0,31.245-5.16,40.99-15.479
		c9.748-10.32,14.621-25.986,14.621-47.012V920.344c0-2.102,0.618-3.727,1.863-4.873c1.239-1.146,2.816-1.721,4.729-1.721h5.159
		c1.908,0,3.439,0.623,4.587,1.863c1.146,1.246,1.722,2.82,1.722,4.73v116.383c0,27.328-6.308,47.584-18.921,60.771
		c-12.613,13.186-30.864,19.777-54.751,19.777C1138.203,1117.276,1119.906,1110.639,1107.198,1097.354z"/>
</g>
<g>
	<path fill="#1775C2" d="M917.956,163.856c-74.631-74.63-173.855-115.731-279.4-115.731c-105.542,0-204.766,41.102-279.397,115.731
		c-74.629,74.631-115.73,173.856-115.73,279.398c0,105.543,41.102,204.77,115.73,279.399
		c74.631,74.631,173.855,115.73,279.397,115.73c105.545,0,204.77-41.1,279.4-115.73c74.631-74.629,115.73-173.856,115.73-279.399
		C1033.687,337.712,992.587,238.487,917.956,163.856z"/>
	<g>
		<path fill="#5D9DD1" d="M918.07,163.741C843.441,89.111,744.214,48.01,638.671,48.01c-105.543,0-204.766,41.101-279.397,115.73
			c-74.631,74.631-115.73,173.854-115.73,279.398c0,105.543,41.1,204.768,115.73,279.399
			c74.629,74.631,173.854,115.73,279.397,115.73c105.543,0,204.77-41.1,279.398-115.73c74.631-74.631,115.73-173.856,115.73-279.399
			C1033.8,337.595,992.7,238.372,918.07,163.741z M1020.523,443.139c0,8.008-0.244,15.977-0.73,23.9
			c-0.102-0.078-0.209-0.143-0.309-0.225c-2.492-2.051-4.381-4.982-5.66-8.793c-1.283-3.811-1.924-8.318-1.924-13.521
			c0-5.278,0.641-9.839,1.924-13.687c1.279-3.848,3.148-6.799,5.605-8.85c0.16-0.135,0.326-0.257,0.492-0.381
			C1020.318,428.733,1020.523,435.919,1020.523,443.139z M926.74,192.463c-1.723,0.799-3.596,1.229-5.643,1.229
			c-3.373,0-6.305-1.025-8.795-3.076c-2.49-2.052-4.379-4.984-5.66-8.795c-1.205-3.576-1.836-7.775-1.91-12.58
			c1.322,1.287,2.641,2.581,3.949,3.889C914.948,179.398,920.966,185.849,926.74,192.463z M733.384,73.064
			c10.953,2.783,21.754,6.051,32.377,9.789c-0.332,2.32-0.822,4.51-1.529,6.518c-1.355,3.849-3.281,6.854-5.771,9.015
			c-2.494,2.162-5.424,3.241-8.795,3.241s-6.303-1.023-8.795-3.076c-2.492-2.052-4.379-4.984-5.662-8.795
			c-1.281-3.809-1.922-8.316-1.922-13.522C733.286,75.141,733.325,74.093,733.384,73.064z M604.01,76.124
			c0,4.985-0.678,9.4-2.033,13.247c-1.357,3.849-3.281,6.854-5.771,9.015c-2.492,2.162-5.424,3.241-8.795,3.241
			s-6.303-1.023-8.793-3.076c-2.494-2.052-4.383-4.984-5.664-8.795c-1.281-3.809-1.922-8.316-1.922-13.522
			c0-3.348,0.285-6.378,0.807-9.148c10.02-1.759,20.145-3.121,30.355-4.083C603.399,66.708,604.01,71.078,604.01,76.124z
			 M481.507,94.914c-0.896,1.33-1.904,2.491-3.035,3.472c-2.492,2.162-5.426,3.241-8.797,3.241c-0.676,0-1.328-0.056-1.969-0.141
			C472.262,99.201,476.864,97.011,481.507,94.914z M388.766,154.399c0.02,0.055,0.041,0.106,0.061,0.161
			c1.318,3.81,1.977,8.354,1.977,13.63c0,4.985-0.678,9.399-2.033,13.245c-1.357,3.851-3.281,6.854-5.771,9.017
			c-2.492,2.161-5.424,3.241-8.795,3.241s-6.305-1.025-8.793-3.076c-2.408-1.981-4.246-4.793-5.523-8.415
			c2.871-3.062,5.793-6.089,8.775-9.071C375.173,166.62,381.882,160.376,388.766,154.399z M311.05,260.256
			c0,4.986-0.678,9.399-2.031,13.246c-1.357,3.848-3.283,6.854-5.773,9.016c-2.492,2.162-5.424,3.242-8.793,3.242
			c-1.299,0-2.529-0.165-3.697-0.472c5.65-12.436,11.98-24.571,18.971-36.363C310.591,252.228,311.05,255.988,311.05,260.256z
			 M278.346,329.898c2.49,2.052,4.398,4.984,5.717,8.794c1.32,3.812,1.979,8.354,1.979,13.63c0,4.987-0.678,9.4-2.033,13.247
			c-1.355,3.849-3.281,6.854-5.771,9.014c-2.492,2.163-5.424,3.244-8.795,3.244c-2.508,0-4.771-0.575-6.791-1.712
			c2.895-16.445,6.852-32.61,11.84-48.412C275.88,328.21,277.173,328.929,278.346,329.898z M292.2,604.129
			c1.156,0.49,2.238,1.143,3.24,1.965c2.49,2.053,4.398,4.986,5.717,8.795c1.066,3.082,1.684,6.666,1.881,10.713
			C299.194,618.555,295.581,611.393,292.2,604.129z M394.981,734.219c-1.281-3.811-1.926-8.316-1.926-13.521
			c0-5.275,0.645-9.838,1.926-13.684c1.281-3.85,3.148-6.799,5.607-8.852c2.453-2.053,5.402-3.078,8.85-3.078
			c3.441,0,6.412,1.025,8.904,3.078c2.49,2.053,4.395,4.986,5.717,8.793c1.318,3.812,1.977,8.357,1.977,13.631
			c0,4.986-0.678,9.4-2.033,13.248c-1.357,3.85-3.281,6.854-5.771,9.016c-2.492,2.16-5.424,3.24-8.793,3.24
			c-1.418,0-2.754-0.186-4.016-0.549c-2.771-2.146-5.521-4.332-8.24-6.561C396.317,737.586,395.581,736,394.981,734.219z
			 M476.686,789.147c2.127-1.324,4.566-1.996,7.336-1.996c3.443,0,6.412,1.025,8.904,3.078c2.379,1.961,4.221,4.736,5.533,8.303
			C491.106,795.633,483.846,792.504,476.686,789.147z M585.376,812.764c0-5.277,0.641-9.838,1.924-13.686
			c1.279-3.848,3.15-6.797,5.605-8.85s5.404-3.078,8.85-3.078c3.443,0,6.412,1.025,8.906,3.078c2.488,2.053,4.396,4.984,5.715,8.795
			c1.32,3.811,1.979,8.354,1.979,13.631c0,4.346-0.539,8.238-1.572,11.717c-10.303-0.578-20.531-1.561-30.662-2.947
			C585.643,818.786,585.376,815.92,585.376,812.764z M747.779,809.252c0.225-3.801,0.789-7.221,1.775-10.174
			c1.281-3.848,3.15-6.797,5.607-8.85c2.455-2.053,5.402-3.078,8.85-3.078c3.443,0,6.412,1.025,8.902,3.078
			c2.416,1.988,4.275,4.812,5.59,8.453C768.427,802.641,758.177,806.168,747.779,809.252z M910.159,711.653v-26.9
			c0-0.953-0.205-1.631-0.607-2.033c-0.402-0.404-1.08-0.605-2.033-0.605h-23.854c-0.953,0-1.633,0.201-2.035,0.605
			c-0.402,0.402-0.605,1.08-0.605,2.033v9.014c0,0.951,0.203,1.631,0.605,2.033s1.082,0.604,2.035,0.604h9.562
			c0.586,0,0.988,0.111,1.211,0.33c0.219,0.219,0.328,0.625,0.328,1.207v28.455c-9.369,8.49-19.09,16.467-29.129,23.918v-65.561
			c0-0.953-0.205-1.631-0.607-2.033c-0.404-0.404-1.082-0.605-2.033-0.605h-23.855c-0.951,0-1.631,0.201-2.033,0.605
			c-0.402,0.402-0.605,1.08-0.605,2.033v9.014c0,0.951,0.203,1.631,0.605,2.033s1.082,0.604,2.033,0.604h9.564
			c0.584,0,0.988,0.111,1.209,0.33s0.33,0.625,0.33,1.207v58.484c0,0.953,0.221,1.633,0.66,2.033
			c0.438,0.404,1.135,0.605,2.088,0.605h0.348c-8.645,5.9-17.502,11.43-26.557,16.57c-1.316,0.607-2.586,1.307-3.799,2.117
			c-0.018,0.012-0.035,0.027-0.053,0.039c-9.744,5.383-19.707,10.326-29.867,14.818c-0.172-0.428-0.338-0.863-0.527-1.279
			c-2.678-5.938-6.451-10.5-11.324-13.688c-4.875-3.189-10.57-4.781-17.094-4.781s-12.221,1.631-17.094,4.891
			c-4.875,3.262-8.648,7.916-11.324,13.963c-2.674,6.045-4.01,13.174-4.01,21.381c0,0.186,0.006,0.365,0.01,0.547
			c-5.5,1.371-11.039,2.615-16.611,3.742v-40.566c0-0.951-0.201-1.631-0.604-2.033c-0.404-0.402-1.082-0.605-2.033-0.605h-23.855
			c-0.955,0-1.633,0.203-2.035,0.605c-0.4,0.402-0.605,1.082-0.605,2.033v9.016c0,0.953,0.205,1.633,0.605,2.033
			c0.402,0.404,1.08,0.605,2.035,0.605h9.562c0.586,0,0.988,0.109,1.209,0.326c0.219,0.223,0.332,0.625,0.332,1.211v30.162
			c-9.625,1.537-19.342,2.705-29.133,3.51v-46.863c0-0.951-0.203-1.631-0.605-2.033s-1.08-0.605-2.031-0.605h-23.857
			c-0.953,0-1.631,0.203-2.033,0.605c-0.404,0.402-0.605,1.082-0.605,2.033v9.016c0,0.953,0.201,1.633,0.605,2.033
			c0.402,0.404,1.08,0.605,2.033,0.605h9.564c0.586,0,0.988,0.109,1.209,0.326c0.221,0.223,0.33,0.625,0.33,1.211v34.627
			c-5.482,0.232-10.986,0.355-16.508,0.355c-1.881,0-3.76-0.018-5.637-0.045c0.822-3.881,1.26-8.074,1.26-12.621
			c0-8.061-1.338-15.061-4.01-20.996c-2.68-5.938-6.453-10.5-11.324-13.688c-4.875-3.189-10.572-4.781-17.096-4.781
			c-6.521,0-12.221,1.631-17.094,4.891c-4.873,3.262-8.648,7.916-11.322,13.963c-2.676,6.045-4.014,13.174-4.014,21.381
			c0,1.977,0.104,3.869,0.262,5.717c-5.654-1.027-11.275-2.178-16.859-3.455v-38.539c0-0.951-0.201-1.631-0.604-2.033
			c-0.404-0.402-1.082-0.605-2.033-0.605h-23.857c-0.951,0-1.631,0.203-2.033,0.605s-0.604,1.082-0.604,2.033v9.016
			c0,0.953,0.201,1.633,0.604,2.033c0.402,0.404,1.082,0.605,2.033,0.605h9.566c0.584,0,0.988,0.109,1.207,0.326
			c0.223,0.223,0.33,0.625,0.33,1.211v21.49c-7.172-1.959-14.275-4.127-21.305-6.5c-0.578-5.049-1.766-9.613-3.592-13.67
			c-2.676-5.938-6.451-10.5-11.324-13.688c-4.875-3.189-10.57-4.781-17.094-4.781s-12.221,1.631-17.094,4.891
			c-1.791,1.197-3.416,2.607-4.908,4.186c-13.729-7.176-27.045-15.209-39.881-24.076c1.508-0.648,2.957-1.408,4.336-2.312
			c4.908-3.225,8.701-7.861,11.379-13.906c2.676-6.049,4.014-13.176,4.014-21.383c0-8.062-1.338-15.061-4.014-20.994
			c-2.678-5.938-6.449-10.502-11.322-13.689c-4.877-3.188-10.572-4.781-17.096-4.781c-6.521,0-12.221,1.629-17.092,4.891
			c-4.875,3.262-8.648,7.916-11.324,13.961c-2.676,6.047-4.012,13.176-4.012,21.385c0,0.107,0.006,0.213,0.008,0.32
			c-2.855-2.688-5.68-5.418-8.463-8.201c-2.764-2.764-5.475-5.568-8.145-8.4v-19.996c0-0.953-0.201-1.631-0.604-2.033
			c-0.404-0.404-1.082-0.605-2.035-0.605h-17.092c-8.979-11.148-17.281-22.729-24.885-34.689c2.098-5.572,3.174-11.969,3.174-19.232
			c0-8.061-1.338-15.059-4.014-20.996c-2.678-5.936-6.451-10.498-11.324-13.688c-4.875-3.188-10.57-4.781-17.094-4.781
			c-0.402,0-0.793,0.023-1.188,0.037c-15.254-37-24.617-76.434-27.598-117.137c1.322-1.867,2.5-3.918,3.504-6.186
			c2.674-6.047,4.012-13.176,4.012-21.383c0-8.06-1.338-15.06-4.012-20.997c-1.043-2.313-2.27-4.397-3.646-6.289
			c0.588-8.677,1.459-17.297,2.621-25.849c2.836,0.773,5.859,1.193,9.104,1.193c6.521,0,12.238-1.611,17.148-4.837
			c4.91-3.225,8.703-7.86,11.379-13.905c2.676-6.047,4.014-13.174,4.014-21.382c0-8.062-1.338-15.062-4.014-20.996
			c-2.676-5.937-6.451-10.498-11.322-13.687c-2.311-1.511-4.818-2.636-7.496-3.429c1.824-5.088,3.764-10.133,5.805-15.135
			c2.945,0.846,6.1,1.304,9.496,1.304c6.521,0,12.236-1.61,17.148-4.837c4.906-3.224,8.701-7.86,11.379-13.906
			c2.674-6.046,4.012-13.173,4.012-21.381c0-8.062-1.338-15.062-4.012-20.996c-0.963-2.134-2.082-4.07-3.33-5.846
			c8.783-13.281,18.439-26.072,28.941-38.3c2.305,3.519,5.141,6.367,8.521,8.526c4.871,3.116,10.568,4.673,17.092,4.673
			s12.238-1.612,17.15-4.836c4.908-3.226,8.699-7.861,11.377-13.907c2.676-6.046,4.014-13.174,4.014-21.381
			c0-8.062-1.338-15.06-4.014-20.995c-0.451-1.001-0.949-1.945-1.465-2.866c4.148-3.306,8.357-6.517,12.623-9.635v7.003
			c0,0.953,0.201,1.632,0.605,2.034c0.4,0.403,1.08,0.604,2.031,0.604h9.564c0.584,0,0.988,0.11,1.209,0.33s0.33,0.623,0.33,1.208
			v58.482c0,0.952,0.221,1.634,0.66,2.033c0.439,0.405,1.135,0.605,2.088,0.605h10.004c0.951,0,1.631-0.2,2.033-0.605
			c0.402-0.399,0.605-1.081,0.605-2.033v-71.673c0-0.952-0.203-1.631-0.605-2.033c-0.402-0.403-1.082-0.605-2.033-0.605h-19.994
			c9.986-6.987,20.266-13.471,30.811-19.431c0.451,0.333,0.91,0.658,1.383,0.961c4.875,3.117,10.572,4.672,17.094,4.672
			c6.525,0,12.24-1.609,17.152-4.836c4.908-3.223,8.699-7.861,11.377-13.905c1.416-3.199,2.428-6.729,3.09-10.54
			c7.186-2.766,14.459-5.313,21.809-7.637v32.962c0,0.952,0.221,1.633,0.658,2.032c0.439,0.404,1.137,0.606,2.09,0.606h10.004
			c0.953,0,1.631-0.202,2.033-0.606c0.402-0.399,0.605-1.08,0.605-2.032V74.498c5.596-1.511,11.232-2.897,16.908-4.153
			c-0.188,2.006-0.309,4.064-0.309,6.222c0,8.135,1.318,15.168,3.955,21.104c2.639,5.937,6.393,10.463,11.27,13.576
			c4.873,3.117,10.568,4.672,17.094,4.672c6.523,0,12.238-1.609,17.15-4.836c4.908-3.223,8.699-7.861,11.375-13.905
			c2.676-6.047,4.014-13.174,4.014-21.382c0-5.086-0.553-9.734-1.619-13.973c6.75-0.352,13.531-0.534,20.34-0.534
			c0.721,0,1.441,0.009,2.162,0.013v50.661c0,0.952,0.223,1.633,0.662,2.032c0.438,0.404,1.135,0.606,2.088,0.606h10.004
			c0.951,0,1.631-0.202,2.033-0.606c0.402-0.399,0.605-1.08,0.605-2.032V61.687c9.783,0.44,19.498,1.244,29.131,2.41v47.864
			c0,0.952,0.219,1.633,0.658,2.032c0.439,0.404,1.137,0.606,2.09,0.606h10.004c0.951,0,1.631-0.202,2.033-0.606
			c0.402-0.399,0.605-1.08,0.605-2.032V66.281c5.695,0.925,11.357,1.977,16.984,3.155c-0.246,2.28-0.385,4.647-0.385,7.13
			c0,8.135,1.318,15.168,3.957,21.104c2.637,5.937,6.391,10.463,11.266,13.576c4.875,3.117,10.572,4.672,17.096,4.672
			c6.521,0,12.238-1.609,17.148-4.836c4.91-3.223,8.701-7.861,11.379-13.905c1.178-2.66,2.076-5.545,2.732-8.623
			c7.49,3.003,14.879,6.25,22.164,9.729v13.679c0,0.952,0.221,1.633,0.66,2.032c0.439,0.404,1.135,0.606,2.088,0.606h10.006
			c0.949,0,1.629-0.202,2.033-0.606c0.402-0.399,0.604-1.08,0.604-2.032v-5.896c14.248,7.624,28.037,16.187,41.297,25.644
			c-4.277-2.197-9.115-3.312-14.529-3.312c-6.523,0-12.221,1.633-17.094,4.892c-4.875,3.263-8.65,7.915-11.324,13.961
			c-2.676,6.046-4.012,13.174-4.012,21.382c0,8.135,1.318,15.17,3.957,21.106s6.393,10.462,11.27,13.575
			c4.871,3.116,10.568,4.673,17.092,4.673s12.24-1.612,17.15-4.836c4.908-3.226,8.701-7.861,11.377-13.907
			s4.014-13.174,4.014-21.381c0-8.062-1.338-15.06-4.014-20.995c-1.758-3.901-4-7.196-6.705-9.909
			c7.918,5.93,15.635,12.188,23.135,18.768c-0.863,3.961-1.316,8.25-1.316,12.906c0,8.135,1.32,15.17,3.959,21.106
			c2.637,5.937,6.391,10.462,11.268,13.575c4.871,3.116,10.57,4.673,17.094,4.673c5.787,0,10.922-1.302,15.439-3.842
			c4.654,5.778,9.125,11.673,13.412,17.677c-0.201-0.025-0.42-0.038-0.654-0.038h-23.855c-0.953,0-1.631,0.202-2.035,0.604
			c-0.402,0.404-0.605,1.082-0.605,2.033v9.017c0,0.953,0.203,1.631,0.605,2.033c0.404,0.403,1.082,0.604,2.035,0.604h9.562
			c0.586,0,0.988,0.109,1.211,0.329c0.219,0.22,0.33,0.624,0.33,1.209v58.483c0,0.952,0.219,1.633,0.656,2.033
			c0.441,0.404,1.137,0.605,2.09,0.605h10.006c0.951,0,1.629-0.201,2.031-0.605c0.404-0.4,0.605-1.081,0.605-2.033v-71.478
			c6.141,8.762,11.893,17.75,17.242,26.945c-0.414,2.883-0.645,5.918-0.645,9.134c0,8.136,1.322,15.171,3.959,21.106
			c2.639,5.937,6.393,10.463,11.27,13.576c2.666,1.707,5.596,2.911,8.758,3.681c1.99,4.89,3.883,9.818,5.666,14.789h-19.045
			c-0.953,0-1.633,0.202-2.035,0.605c-0.402,0.402-0.604,1.08-0.604,2.033v9.013c0,0.953,0.201,1.633,0.604,2.033
			c0.402,0.405,1.082,0.605,2.035,0.605h9.564c0.584,0,0.988,0.11,1.209,0.328c0.219,0.221,0.33,0.626,0.33,1.209v58.485
			c0,0.952,0.219,1.63,0.658,2.032c0.441,0.404,1.137,0.605,2.09,0.605h10.004c0.951,0,1.629-0.201,2.033-0.605
			c0.402-0.402,0.605-1.08,0.605-2.032V336.91c6.455,22.419,10.857,45.523,13.117,69.086c-2.662,0.81-5.156,1.954-7.453,3.489
			c-4.875,3.263-8.648,7.916-11.322,13.961c-2.676,6.048-4.014,13.177-4.014,21.384c0,8.133,1.32,15.17,3.959,21.105
			s6.391,10.463,11.268,13.574c2.254,1.445,4.699,2.525,7.311,3.299c-0.479,4.65-1.039,9.285-1.682,13.898
			c-6.004,0.195-11.299,1.797-15.857,4.846c-4.875,3.262-8.646,7.916-11.322,13.961s-4.012,13.174-4.012,21.383
			c0,8.133,1.318,15.168,3.959,21.105c2.281,5.137,5.422,9.191,9.383,12.213c-3.145,8.934-6.621,17.741-10.426,26.407v-3.938
			c0-0.951-0.203-1.629-0.604-2.033c-0.406-0.402-1.086-0.605-2.035-0.605h-23.855c-0.953,0-1.633,0.203-2.033,0.605
			c-0.404,0.404-0.604,1.082-0.604,2.033v9.016c0,0.953,0.199,1.633,0.604,2.033c0.4,0.404,1.08,0.605,2.033,0.605h9.564
			c0.584,0,0.988,0.109,1.209,0.328c0.221,0.221,0.328,0.625,0.328,1.209v21.84C956.329,658.084,935.23,686.313,910.159,711.653z
			 M861.738,168.19c0,4.985-0.68,9.399-2.033,13.245c-1.357,3.851-3.281,6.854-5.773,9.017c-2.49,2.161-5.424,3.241-8.795,3.241
			s-6.303-1.025-8.793-3.076c-2.49-2.052-4.379-4.984-5.662-8.795s-1.924-8.318-1.924-13.522c0-5.274,0.641-9.838,1.924-13.687
			c1.283-3.846,3.15-6.796,5.607-8.849c2.455-2.05,5.404-3.077,8.848-3.077c3.445,0,6.414,1.027,8.904,3.077
			c2.492,2.053,4.398,4.986,5.717,8.796C861.077,158.37,861.738,162.915,861.738,168.19z M1003.486,550.086
			c-1.281-3.811-1.924-8.316-1.924-13.521c0-5.275,0.643-9.838,1.924-13.686s3.148-6.797,5.607-8.85
			c1.582-1.322,3.387-2.193,5.383-2.664c-2.52,14.047-5.814,27.885-9.865,41.467C1004.2,551.969,1003.816,551.068,1003.486,550.086z
			"/>
		<path fill="#5D9DD1" d="M611.428,482.258c0.439,0.406,1.135,0.605,2.088,0.605h10.004c0.953,0,1.631-0.199,2.035-0.605
			c0.402-0.4,0.605-1.08,0.605-2.031v-71.674c0-0.951-0.203-1.631-0.605-2.034c-0.404-0.402-1.082-0.604-2.035-0.604h-23.854
			c-0.953,0-1.633,0.202-2.035,0.604c-0.402,0.403-0.604,1.083-0.604,2.034v9.016c0,0.952,0.201,1.63,0.604,2.032
			c0.402,0.404,1.082,0.604,2.035,0.604h9.562c0.586,0,0.99,0.111,1.209,0.33c0.223,0.219,0.33,0.622,0.33,1.207v58.485
			C610.768,481.178,610.989,481.857,611.428,482.258z"/>
		<path fill="#5D9DD1" d="M299.014,497.979h-23.855c-0.953,0-1.633,0.203-2.035,0.607c-0.402,0.402-0.604,1.082-0.604,2.033v9.014
			c0,0.953,0.201,1.633,0.604,2.033c0.402,0.402,1.082,0.605,2.035,0.605h9.562c0.586,0,0.99,0.109,1.211,0.328
			c0.219,0.221,0.328,0.623,0.328,1.209v58.484c0,0.951,0.223,1.631,0.66,2.033c0.441,0.402,1.137,0.605,2.09,0.605h10.004
			c0.951,0,1.629-0.203,2.033-0.605c0.402-0.402,0.605-1.082,0.605-2.033v-71.674c0-0.951-0.203-1.631-0.605-2.033
			C300.643,498.182,299.966,497.979,299.014,497.979z"/>
		<path fill="#5D9DD1" d="M769.726,144.006h9.562c0.586,0,0.99,0.11,1.209,0.33s0.33,0.623,0.33,1.208v58.482
			c0,0.952,0.223,1.634,0.66,2.033c0.439,0.405,1.135,0.605,2.088,0.605h10.004c0.951,0,1.629-0.2,2.033-0.605
			c0.402-0.399,0.605-1.081,0.605-2.033v-71.673c0-0.952-0.203-1.631-0.605-2.033c-0.404-0.403-1.082-0.605-2.033-0.605h-23.854
			c-0.953,0-1.633,0.202-2.035,0.605c-0.402,0.402-0.604,1.081-0.604,2.033v9.014c0,0.953,0.201,1.632,0.604,2.034
			C768.093,143.805,768.773,144.006,769.726,144.006z"/>
		<path fill="#5D9DD1" d="M710.31,203.312c4.873,3.116,10.572,4.673,17.094,4.673c6.523,0,12.236-1.612,17.148-4.836
			c4.91-3.226,8.701-7.861,11.379-13.907c2.676-6.046,4.014-13.174,4.014-21.381c0-8.062-1.338-15.06-4.014-20.995
			c-2.678-5.938-6.451-10.5-11.324-13.688c-4.875-3.188-10.568-4.782-17.094-4.782c-6.523,0-12.219,1.633-17.094,4.892
			c-4.875,3.263-8.646,7.915-11.322,13.961s-4.014,13.174-4.014,21.382c0,8.135,1.32,15.17,3.959,21.106
			S705.435,200.199,710.31,203.312z M712.948,154.613c1.281-3.846,3.148-6.796,5.605-8.849c2.455-2.05,5.404-3.077,8.85-3.077
			s6.412,1.027,8.904,3.077c2.492,2.053,4.396,4.986,5.717,8.796c1.318,3.81,1.979,8.354,1.979,13.63
			c0,4.985-0.678,9.399-2.033,13.245c-1.355,3.851-3.279,6.854-5.771,9.017c-2.492,2.161-5.424,3.241-8.795,3.241
			s-6.303-1.025-8.795-3.076c-2.49-2.052-4.379-4.984-5.66-8.795c-1.283-3.811-1.924-8.318-1.924-13.522
			C711.025,163.025,711.665,158.461,712.948,154.613z"/>
		<path fill="#5D9DD1" d="M737.077,239.315c-2.676,6.046-4.014,13.175-4.014,21.381c0,8.136,1.32,15.171,3.957,21.106
			c2.639,5.937,6.393,10.463,11.27,13.576c4.873,3.117,10.568,4.673,17.092,4.673s12.238-1.61,17.15-4.837
			c4.91-3.224,8.701-7.86,11.379-13.906c2.674-6.046,4.01-13.173,4.01-21.381c0-8.062-1.336-15.062-4.01-20.996
			c-2.678-5.936-6.451-10.501-11.324-13.688c-4.875-3.186-10.572-4.78-17.094-4.78c-6.525,0-12.223,1.631-17.094,4.891
			C743.525,228.617,739.749,233.269,737.077,239.315z M750.927,246.68c1.283-3.848,3.15-6.797,5.607-8.85
			c2.453-2.05,5.404-3.077,8.848-3.077c3.445,0,6.414,1.027,8.906,3.077c2.488,2.053,4.396,4.985,5.717,8.797
			c1.318,3.808,1.977,8.353,1.977,13.629c0,4.986-0.678,9.399-2.033,13.246c-1.355,3.848-3.279,6.854-5.77,9.016
			c-2.492,2.162-5.426,3.242-8.797,3.242s-6.303-1.026-8.791-3.077c-2.494-2.052-4.381-4.984-5.664-8.795
			c-1.281-3.811-1.924-8.318-1.924-13.521C749.003,255.091,749.646,250.528,750.927,246.68z"/>
		<path fill="#5D9DD1" d="M689.974,236.073h9.562c0.586,0,0.988,0.109,1.209,0.329s0.33,0.624,0.33,1.209v58.483
			c0,0.952,0.219,1.633,0.658,2.033c0.441,0.404,1.135,0.605,2.09,0.605h10.004c0.951,0,1.629-0.201,2.033-0.605
			c0.402-0.4,0.605-1.081,0.605-2.033v-71.676c0-0.951-0.203-1.629-0.605-2.033c-0.404-0.401-1.082-0.604-2.033-0.604h-23.854
			c-0.953,0-1.635,0.202-2.037,0.604c-0.4,0.404-0.602,1.082-0.602,2.033v9.017c0,0.953,0.201,1.631,0.602,2.033
			C688.339,235.872,689.021,236.073,689.974,236.073z"/>
		<path fill="#5D9DD1" d="M674.032,317.311c-4.875-3.19-10.572-4.784-17.096-4.784s-12.221,1.634-17.094,4.893
			c-4.875,3.262-8.649,7.915-11.323,13.962c-2.676,6.046-4.012,13.175-4.012,21.381c0,8.136,1.32,15.171,3.957,21.106
			c2.637,5.938,6.393,10.463,11.268,13.576c4.873,3.117,10.57,4.673,17.092,4.673c6.523,0,12.24-1.611,17.15-4.837
			c4.91-3.225,8.701-7.86,11.377-13.905c2.676-6.047,4.014-13.174,4.014-21.382c0-8.062-1.338-15.062-4.014-20.996
			C682.677,325.061,678.904,320.5,674.032,317.311z M671.394,365.569c-1.357,3.849-3.281,6.854-5.773,9.014
			c-2.49,2.163-5.424,3.244-8.795,3.244c-3.369,0-6.301-1.025-8.791-3.078c-2.492-2.052-4.381-4.983-5.662-8.795
			c-1.283-3.809-1.924-8.317-1.924-13.521c0-5.276,0.641-9.837,1.924-13.686c1.281-3.847,3.148-6.797,5.607-8.849
			c2.453-2.052,5.402-3.078,8.846-3.078c3.445,0,6.414,1.026,8.906,3.078c2.49,2.052,4.398,4.984,5.719,8.794
			c1.316,3.812,1.977,8.354,1.977,13.63C673.427,357.309,672.747,361.722,671.394,365.569z"/>
		<path fill="#5D9DD1" d="M707.618,444.059c0-8.06-1.338-15.06-4.014-20.997c-2.676-5.936-6.449-10.498-11.32-13.687
			c-4.877-3.186-10.574-4.781-17.096-4.781c-6.523,0-12.221,1.633-17.094,4.891c-4.875,3.263-8.648,7.916-11.324,13.961
			c-2.674,6.048-4.012,13.177-4.012,21.384c0,8.133,1.32,15.17,3.957,21.105c2.639,5.936,6.395,10.463,11.27,13.574
			c4.873,3.117,10.568,4.674,17.092,4.674c6.525,0,12.238-1.613,17.152-4.836c4.908-3.225,8.699-7.863,11.375-13.906
			C706.281,459.395,707.618,452.266,707.618,444.059z M689.644,457.635c-1.355,3.85-3.279,6.855-5.771,9.016
			c-2.49,2.162-5.424,3.24-8.795,3.24c-3.369,0-6.301-1.023-8.793-3.076c-2.492-2.051-4.381-4.982-5.66-8.793
			c-1.283-3.811-1.924-8.318-1.924-13.521c0-5.278,0.641-9.839,1.924-13.687c1.279-3.848,3.148-6.799,5.604-8.85
			c2.457-2.051,5.406-3.076,8.85-3.076c3.445,0,6.414,1.025,8.906,3.076c2.49,2.051,4.396,4.984,5.717,8.793
			c1.32,3.812,1.977,8.356,1.977,13.632C691.677,449.375,691.001,453.789,689.644,457.635z"/>
		<path fill="#5D9DD1" d="M893.562,409.485c-4.875,3.263-8.65,7.916-11.322,13.961c-2.676,6.048-4.014,13.177-4.014,21.384
			c0,8.133,1.32,15.17,3.957,21.105c2.639,5.936,6.393,10.463,11.27,13.574c4.869,3.117,10.568,4.674,17.092,4.674
			s12.236-1.613,17.15-4.836c4.91-3.225,8.701-7.863,11.377-13.906c2.674-6.047,4.012-13.176,4.012-21.383
			c0-8.06-1.338-15.06-4.012-20.997c-2.676-5.936-6.449-10.498-11.322-13.687c-4.875-3.186-10.572-4.781-17.096-4.781
			S898.433,406.227,893.562,409.485z M925.165,430.756c1.32,3.812,1.979,8.356,1.979,13.632c0,4.986-0.678,9.4-2.033,13.246
			c-1.357,3.85-3.279,6.855-5.771,9.016c-2.492,2.162-5.426,3.24-8.795,3.24s-6.303-1.023-8.793-3.076
			c-2.492-2.051-4.381-4.982-5.662-8.793c-1.283-3.811-1.924-8.318-1.924-13.521c0-5.278,0.641-9.839,1.924-13.687
			c1.281-3.848,3.148-6.799,5.607-8.85c2.453-2.051,5.402-3.076,8.848-3.076s6.414,1.025,8.906,3.076
			C921.939,424.014,923.847,426.948,925.165,430.756z"/>
		<path fill="#5D9DD1" d="M684.642,574.326c0.441,0.402,1.135,0.605,2.088,0.605h10.006c0.949,0,1.627-0.203,2.033-0.605
			c0.4-0.402,0.604-1.082,0.604-2.033v-71.674c0-0.951-0.203-1.631-0.604-2.033c-0.406-0.404-1.084-0.607-2.033-0.607h-23.857
			c-0.951,0-1.631,0.203-2.033,0.607c-0.404,0.402-0.604,1.082-0.604,2.033v9.014c0,0.953,0.199,1.633,0.604,2.033
			c0.402,0.402,1.082,0.605,2.033,0.605h9.564c0.584,0,0.988,0.109,1.209,0.328c0.221,0.221,0.33,0.623,0.33,1.209v58.484
			C683.982,573.244,684.202,573.924,684.642,574.326z"/>
		<path fill="#5D9DD1" d="M866.021,295.378c4.873,3.117,10.57,4.673,17.096,4.673c6.523,0,12.236-1.61,17.148-4.837
			c4.908-3.224,8.701-7.86,11.379-13.906c2.674-6.046,4.012-13.173,4.012-21.381c0-8.062-1.338-15.062-4.012-20.996
			c-2.678-5.936-6.451-10.501-11.324-13.688c-4.873-3.186-10.57-4.78-17.094-4.78s-12.221,1.631-17.094,4.891
			c-4.875,3.264-8.648,7.916-11.322,13.962c-2.676,6.046-4.014,13.175-4.014,21.381c0,8.136,1.32,15.171,3.957,21.106
			C857.394,287.739,861.146,292.265,866.021,295.378z M868.661,246.68c1.281-3.848,3.148-6.797,5.605-8.85
			c2.453-2.05,5.404-3.077,8.85-3.077c3.443,0,6.41,1.027,8.904,3.077c2.492,2.053,4.398,4.985,5.717,8.797
			c1.318,3.808,1.977,8.353,1.977,13.629c0,4.986-0.676,9.399-2.033,13.246c-1.355,3.848-3.281,6.854-5.771,9.016
			s-5.424,3.242-8.793,3.242c-3.373,0-6.305-1.026-8.795-3.077c-2.492-2.052-4.379-4.984-5.66-8.795
			c-1.283-3.811-1.926-8.318-1.926-13.521C866.736,255.091,867.378,250.528,868.661,246.68z"/>
		<path fill="#5D9DD1" d="M934.615,328.138h9.564c0.584,0,0.988,0.11,1.209,0.328c0.219,0.221,0.328,0.626,0.328,1.209v58.485
			c0,0.952,0.221,1.63,0.66,2.032c0.439,0.404,1.135,0.605,2.09,0.605h10.004c0.951,0,1.629-0.201,2.033-0.605
			c0.402-0.402,0.604-1.08,0.604-2.032v-71.674c0-0.953-0.201-1.631-0.604-2.033c-0.404-0.403-1.082-0.605-2.033-0.605h-23.855
			c-0.953,0-1.631,0.202-2.035,0.605c-0.402,0.402-0.604,1.08-0.604,2.033v9.013c0,0.953,0.201,1.633,0.604,2.033
			C932.984,327.938,933.661,328.138,934.615,328.138z"/>
		<path fill="#5D9DD1" d="M299.014,405.914h-23.855c-0.953,0-1.633,0.202-2.035,0.604c-0.402,0.403-0.604,1.083-0.604,2.034v9.016
			c0,0.952,0.201,1.63,0.604,2.032c0.402,0.404,1.082,0.604,2.035,0.604h9.562c0.586,0,0.99,0.111,1.211,0.33
			c0.219,0.219,0.328,0.622,0.328,1.207v58.485c0,0.951,0.223,1.631,0.66,2.031c0.441,0.406,1.137,0.605,2.09,0.605h10.004
			c0.951,0,1.629-0.199,2.033-0.605c0.402-0.4,0.605-1.08,0.605-2.031v-71.674c0-0.951-0.203-1.631-0.605-2.034
			C300.643,406.116,299.966,405.914,299.014,405.914z"/>
		<path fill="#5D9DD1" d="M950.833,406.518c-0.404,0.403-0.604,1.083-0.604,2.034v9.016c0,0.952,0.199,1.63,0.604,2.032
			c0.402,0.404,1.082,0.604,2.033,0.604h9.564c0.586,0,0.988,0.111,1.209,0.33s0.33,0.622,0.33,1.207v58.485
			c0,0.951,0.221,1.631,0.658,2.031c0.441,0.406,1.135,0.605,2.09,0.605h10.004c0.953,0,1.629-0.199,2.033-0.605
			c0.404-0.4,0.604-1.08,0.604-2.031v-71.674c0-0.951-0.199-1.631-0.604-2.034c-0.404-0.402-1.08-0.604-2.033-0.604h-23.855
			C951.915,405.914,951.236,406.116,950.833,406.518z"/>
		<path fill="#5D9DD1" d="M833.099,406.518c-0.404,0.403-0.604,1.083-0.604,2.034v9.016c0,0.952,0.199,1.63,0.604,2.032
			c0.402,0.404,1.08,0.604,2.033,0.604h9.564c0.584,0,0.988,0.111,1.209,0.33s0.33,0.622,0.33,1.207v58.485
			c0,0.951,0.221,1.631,0.66,2.031c0.439,0.406,1.133,0.605,2.09,0.605h10c0.953,0,1.629-0.199,2.033-0.605
			c0.404-0.4,0.605-1.08,0.605-2.031v-71.674c0-0.951-0.201-1.631-0.605-2.034c-0.404-0.402-1.08-0.604-2.033-0.604h-23.854
			C834.179,405.914,833.501,406.116,833.099,406.518z"/>
		<path fill="#5D9DD1" d="M909.499,317.311c-4.877-3.19-10.572-4.784-17.098-4.784c-6.521,0-12.219,1.634-17.092,4.893
			c-4.875,3.262-8.648,7.915-11.324,13.962c-2.676,6.046-4.012,13.175-4.012,21.381c0,8.136,1.32,15.171,3.957,21.106
			c2.641,5.938,6.395,10.463,11.27,13.576c4.871,3.117,10.568,4.673,17.092,4.673s12.238-1.611,17.15-4.837
			c4.908-3.225,8.701-7.86,11.377-13.905c2.676-6.047,4.014-13.174,4.014-21.382c0-8.062-1.338-15.062-4.014-20.996
			C918.144,325.061,914.37,320.5,909.499,317.311z M906.859,365.569c-1.357,3.849-3.281,6.854-5.771,9.014
			c-2.49,2.163-5.422,3.244-8.795,3.244c-3.369,0-6.301-1.025-8.793-3.078c-2.492-2.052-4.381-4.983-5.66-8.795
			c-1.283-3.809-1.926-8.317-1.926-13.521c0-5.276,0.643-9.837,1.926-13.686c1.279-3.847,3.148-6.797,5.604-8.849
			s5.404-3.078,8.85-3.078s6.414,1.026,8.906,3.078c2.49,2.052,4.396,4.984,5.717,8.794c1.318,3.812,1.977,8.354,1.977,13.63
			C908.892,357.309,908.216,361.722,906.859,365.569z"/>
		<path fill="#5D9DD1" d="M729.163,482.258c0.439,0.406,1.135,0.605,2.088,0.605h10.006c0.951,0,1.629-0.199,2.033-0.605
			c0.4-0.4,0.604-1.08,0.604-2.031v-71.674c0-0.951-0.203-1.631-0.604-2.034c-0.404-0.402-1.082-0.604-2.033-0.604h-23.855
			c-0.953,0-1.633,0.202-2.035,0.604c-0.4,0.403-0.604,1.083-0.604,2.034v9.016c0,0.952,0.203,1.63,0.604,2.032
			c0.402,0.404,1.082,0.604,2.035,0.604h9.562c0.584,0,0.99,0.111,1.211,0.33c0.219,0.219,0.328,0.622,0.328,1.207v58.485
			C728.503,481.178,728.724,481.857,729.163,482.258z"/>
		<path fill="#5D9DD1" d="M791.765,317.311c-4.875-3.19-10.574-4.784-17.096-4.784s-12.221,1.634-17.092,4.893
			c-4.875,3.262-8.648,7.915-11.322,13.962c-2.676,6.046-4.014,13.175-4.014,21.381c0,8.136,1.32,15.171,3.957,21.106
			c2.639,5.938,6.393,10.463,11.268,13.576c4.873,3.117,10.57,4.673,17.094,4.673s12.24-1.611,17.15-4.837
			c4.908-3.225,8.701-7.86,11.377-13.905c2.674-6.047,4.014-13.174,4.014-21.382c0-8.062-1.34-15.062-4.014-20.996
			C800.411,325.061,796.638,320.5,791.765,317.311z M789.126,365.569c-1.355,3.849-3.279,6.854-5.771,9.014
			c-2.492,2.163-5.424,3.244-8.795,3.244c-3.369,0-6.303-1.025-8.793-3.078c-2.494-2.052-4.379-4.983-5.662-8.795
			c-1.283-3.809-1.924-8.317-1.924-13.521c0-5.276,0.641-9.837,1.924-13.686c1.283-3.847,3.148-6.797,5.605-8.849
			c2.455-2.052,5.404-3.078,8.85-3.078s6.414,1.026,8.906,3.078c2.49,2.052,4.396,4.984,5.715,8.794
			c1.32,3.812,1.979,8.354,1.979,13.63C791.159,357.309,790.482,361.722,789.126,365.569z"/>
		<path fill="#5D9DD1" d="M814.849,314.454c-0.404,0.402-0.604,1.08-0.604,2.033v9.013c0,0.953,0.199,1.633,0.604,2.033
			c0.402,0.405,1.08,0.605,2.033,0.605h9.564c0.586,0,0.988,0.11,1.209,0.328c0.221,0.221,0.33,0.626,0.33,1.209v58.485
			c0,0.952,0.221,1.63,0.658,2.032c0.441,0.404,1.135,0.605,2.09,0.605h10.004c0.953,0,1.629-0.201,2.033-0.605
			c0.402-0.402,0.605-1.08,0.605-2.032v-71.674c0-0.953-0.203-1.631-0.605-2.033c-0.404-0.403-1.08-0.605-2.033-0.605h-23.855
			C815.929,313.848,815.251,314.05,814.849,314.454z"/>
		<path fill="#5D9DD1" d="M710.911,390.193c0.439,0.404,1.133,0.605,2.088,0.605h10.006c0.949,0,1.625-0.201,2.031-0.605
			c0.402-0.402,0.605-1.08,0.605-2.032v-71.674c0-0.953-0.203-1.631-0.605-2.033c-0.406-0.403-1.082-0.605-2.031-0.605h-23.857
			c-0.953,0-1.633,0.202-2.033,0.605c-0.402,0.402-0.605,1.08-0.605,2.033v9.013c0,0.953,0.203,1.633,0.605,2.033
			c0.4,0.405,1.08,0.605,2.033,0.605h9.564c0.584,0,0.99,0.11,1.209,0.328c0.221,0.221,0.328,0.626,0.328,1.209v58.485
			C710.249,389.113,710.472,389.791,710.911,390.193z"/>
		<path fill="#5D9DD1" d="M593.178,390.193c0.441,0.404,1.135,0.605,2.09,0.605h10.004c0.949,0,1.629-0.201,2.031-0.605
			c0.402-0.402,0.607-1.08,0.607-2.032v-71.674c0-0.953-0.205-1.631-0.607-2.033c-0.402-0.403-1.082-0.605-2.031-0.605h-23.855
			c-0.953,0-1.633,0.202-2.035,0.605c-0.402,0.402-0.604,1.08-0.604,2.033v9.013c0,0.953,0.201,1.633,0.604,2.033
			c0.402,0.405,1.082,0.605,2.035,0.605h9.562c0.586,0,0.988,0.11,1.209,0.328c0.221,0.221,0.33,0.626,0.33,1.209v58.485
			C592.518,389.113,592.739,389.791,593.178,390.193z"/>
		<path fill="#5D9DD1" d="M810.017,409.375c-4.875-3.186-10.572-4.781-17.096-4.781s-12.221,1.633-17.094,4.891
			c-4.875,3.263-8.648,7.916-11.32,13.961c-2.678,6.048-4.014,13.177-4.014,21.384c0,8.133,1.316,15.17,3.957,21.105
			c2.637,5.936,6.393,10.463,11.268,13.574c4.871,3.117,10.568,4.674,17.094,4.674c6.521,0,12.238-1.613,17.15-4.836
			c4.908-3.225,8.699-7.863,11.377-13.906c2.676-6.047,4.012-13.176,4.012-21.383c0-8.06-1.336-15.06-4.012-20.997
			C818.661,417.126,814.888,412.564,810.017,409.375z M807.378,457.635c-1.357,3.85-3.281,6.855-5.773,9.016
			c-2.49,2.162-5.422,3.24-8.793,3.24s-6.303-1.023-8.793-3.076c-2.492-2.051-4.381-4.982-5.662-8.793
			c-1.283-3.811-1.924-8.318-1.924-13.521c0-5.278,0.641-9.839,1.924-13.687c1.281-3.848,3.148-6.799,5.605-8.85
			c2.455-2.051,5.404-3.076,8.85-3.076c3.443,0,6.412,1.025,8.906,3.076c2.488,2.051,4.396,4.984,5.715,8.793
			c1.318,3.812,1.979,8.356,1.979,13.632C809.411,449.375,808.734,453.789,807.378,457.635z"/>
		<path fill="#5D9DD1" d="M807.704,236.073h9.564c0.584,0,0.988,0.109,1.207,0.329c0.223,0.22,0.33,0.624,0.33,1.209v58.483
			c0,0.952,0.221,1.633,0.658,2.033c0.443,0.404,1.137,0.605,2.092,0.605h10.002c0.953,0,1.631-0.201,2.035-0.605
			c0.402-0.4,0.605-1.081,0.605-2.033v-71.676c0-0.951-0.203-1.629-0.605-2.033c-0.404-0.401-1.082-0.604-2.035-0.604h-23.854
			c-0.953,0-1.631,0.202-2.035,0.604c-0.402,0.404-0.604,1.082-0.604,2.033v9.017c0,0.953,0.201,1.631,0.604,2.033
			C806.073,235.872,806.751,236.073,807.704,236.073z"/>
		<path fill="#5D9DD1" d="M619.343,239.315c-2.676,6.046-4.012,13.175-4.012,21.381c0,8.136,1.318,15.171,3.957,21.106
			c2.639,5.937,6.393,10.463,11.268,13.576c4.873,3.117,10.573,4.673,17.094,4.673s12.238-1.61,17.15-4.837
			c4.908-3.224,8.701-7.86,11.377-13.906s4.016-13.173,4.016-21.381c0-8.062-1.34-15.062-4.016-20.996
			c-2.676-5.936-6.451-10.501-11.322-13.688c-4.875-3.186-10.572-4.78-17.096-4.78s-12.221,1.631-17.094,4.891
			C625.79,228.617,622.018,233.269,619.343,239.315z M633.196,246.68c1.281-3.848,3.148-6.797,5.606-8.85
			c2.453-2.05,5.402-3.077,8.848-3.077c3.443,0,6.412,1.027,8.904,3.077c2.49,2.053,4.398,4.985,5.717,8.797
			c1.32,3.808,1.979,8.353,1.979,13.629c0,4.986-0.676,9.399-2.033,13.246c-1.355,3.848-3.281,6.854-5.771,9.016
			s-5.424,3.242-8.795,3.242s-6.303-1.026-8.793-3.077c-2.493-2.052-4.379-4.984-5.661-8.795c-1.285-3.811-1.926-8.318-1.926-13.521
			C631.27,255.091,631.911,250.528,633.196,246.68z"/>
		<path fill="#5D9DD1" d="M583.725,593.508c-4.873-3.188-10.57-4.781-17.092-4.781c-6.523,0-12.223,1.631-17.096,4.893
			s-8.648,7.914-11.324,13.959c-2.674,6.049-4.01,13.178-4.01,21.383c0,8.135,1.318,15.172,3.955,21.105
			c2.641,5.938,6.395,10.465,11.27,13.576c4.873,3.115,10.57,4.674,17.094,4.674s12.238-1.613,17.15-4.838
			c4.906-3.225,8.701-7.861,11.377-13.906c2.674-6.045,4.014-13.174,4.014-21.381c0-8.061-1.34-15.059-4.014-20.996
			C592.374,601.26,588.598,596.698,583.725,593.508z M581.089,641.768c-1.357,3.848-3.279,6.855-5.773,9.016
			c-2.49,2.16-5.424,3.24-8.793,3.24c-3.371,0-6.303-1.023-8.795-3.076c-2.49-2.051-4.379-4.982-5.66-8.795
			c-1.283-3.811-1.924-8.318-1.924-13.521c0-5.275,0.641-9.838,1.924-13.686c1.281-3.848,3.15-6.799,5.607-8.852
			c2.453-2.049,5.402-3.076,8.848-3.076c3.443,0,6.412,1.027,8.906,3.076c2.49,2.053,4.398,4.986,5.717,8.795
			c1.318,3.812,1.977,8.355,1.977,13.633C583.122,633.506,582.444,637.92,581.089,641.768z"/>
		<path fill="#5D9DD1" d="M593.346,682.114h-23.855c-0.951,0-1.631,0.201-2.033,0.605c-0.402,0.402-0.604,1.08-0.604,2.033v9.014
			c0,0.951,0.201,1.631,0.604,2.033s1.082,0.604,2.033,0.604h9.564c0.586,0,0.988,0.111,1.209,0.33s0.33,0.625,0.33,1.207v58.484
			c0,0.953,0.221,1.633,0.658,2.033c0.441,0.404,1.137,0.605,2.092,0.605h10.002c0.951,0,1.629-0.201,2.035-0.605
			c0.4-0.4,0.605-1.08,0.605-2.033v-71.672c0-0.953-0.205-1.631-0.605-2.033C594.975,682.315,594.298,682.114,593.346,682.114z"/>
		<path fill="#5D9DD1" d="M613.462,571.578c4.873,3.115,10.57,4.67,17.094,4.67c6.525,0,12.239-1.609,17.149-4.834
			s8.703-7.861,11.379-13.906c2.676-6.049,4.014-13.174,4.014-21.383c0-8.061-1.338-15.061-4.014-20.996
			c-2.676-5.938-6.451-10.5-11.322-13.688c-4.875-3.188-10.571-4.781-17.096-4.781c-6.523,0-12.219,1.633-17.092,4.893
			c-4.875,3.262-8.648,7.916-11.324,13.961s-4.012,13.174-4.012,21.383c0,8.133,1.318,15.168,3.957,21.105
			C604.833,563.938,608.587,568.463,613.462,571.578z M616.102,522.879c1.279-3.848,3.148-6.797,5.604-8.85
			c2.455-2.051,5.404-3.076,8.85-3.076s6.414,1.025,8.905,3.076c2.492,2.053,4.398,4.984,5.717,8.795s1.98,8.355,1.98,13.631
			c0,4.986-0.68,9.398-2.035,13.246c-1.357,3.85-3.281,6.855-5.77,9.014c-2.495,2.164-5.424,3.244-8.797,3.244
			c-3.371,0-6.303-1.025-8.793-3.078c-2.492-2.051-4.381-4.984-5.66-8.795c-1.285-3.811-1.926-8.316-1.926-13.521
			C614.177,531.289,614.817,526.727,616.102,522.879z"/>
		<path fill="#5D9DD1" d="M619.62,604.667c0.219,0.221,0.328,0.625,0.328,1.209v58.484c0,0.951,0.221,1.631,0.66,2.031
			c0.438,0.404,1.135,0.605,2.088,0.605H632.7c0.951,0,1.629-0.201,2.033-0.605c0.402-0.4,0.605-1.08,0.605-2.031v-71.676
			c0-0.951-0.203-1.629-0.605-2.033c-0.404-0.402-1.082-0.605-2.033-0.605h-23.854c-0.953,0-1.633,0.203-2.035,0.605
			c-0.402,0.404-0.605,1.082-0.605,2.033v9.016c0,0.953,0.203,1.633,0.605,2.033c0.402,0.404,1.082,0.605,2.035,0.605h9.562
			C618.995,604.338,619.397,604.448,619.62,604.667z"/>
		<path fill="#5D9DD1" d="M662.107,685.575c-4.873-3.188-10.572-4.781-17.094-4.781c-6.523,0-12.221,1.629-17.094,4.891
			c-4.875,3.262-8.648,7.916-11.322,13.961c-2.676,6.047-4.014,13.176-4.014,21.385c0,8.133,1.318,15.168,3.959,21.105
			c2.637,5.936,6.391,10.461,11.268,13.574c4.871,3.115,10.568,4.674,17.092,4.674c6.525,0,12.24-1.613,17.15-4.836
			c4.91-3.225,8.701-7.861,11.379-13.906c2.674-6.049,4.012-13.176,4.012-21.383c0-8.062-1.338-15.061-4.012-20.994
			C670.753,693.327,666.98,688.762,662.107,685.575z M659.468,733.834c-1.355,3.85-3.279,6.854-5.771,9.016
			c-2.492,2.16-5.424,3.24-8.795,3.24c-3.369,0-6.301-1.023-8.792-3.078c-2.494-2.049-4.381-4.982-5.662-8.793
			c-1.285-3.811-1.924-8.316-1.924-13.521c0-5.275,0.639-9.838,1.924-13.684c1.281-3.85,3.148-6.799,5.605-8.852
			c2.454-2.053,5.405-3.078,8.848-3.078c3.445,0,6.414,1.025,8.906,3.078s4.396,4.986,5.715,8.793
			c1.32,3.812,1.979,8.357,1.979,13.631C661.501,725.573,660.823,729.987,659.468,733.834z"/>
		<path fill="#5D9DD1" d="M712.784,649.573c2.676-6.045,4.012-13.174,4.012-21.381c0-8.061-1.336-15.059-4.012-20.996
			c-2.676-5.936-6.449-10.498-11.322-13.688c-4.875-3.188-10.572-4.781-17.094-4.781c-6.525,0-12.223,1.631-17.096,4.893
			s-8.646,7.914-11.322,13.959c-2.674,6.049-4.012,13.178-4.012,21.383c0,8.135,1.318,15.172,3.957,21.105
			c2.637,5.938,6.393,10.465,11.268,13.576c4.873,3.115,10.57,4.674,17.094,4.674s12.238-1.613,17.148-4.838
			S710.109,655.618,712.784,649.573z M698.823,641.768c-1.357,3.848-3.281,6.855-5.771,9.016c-2.492,2.16-5.424,3.24-8.795,3.24
			s-6.303-1.023-8.793-3.076c-2.494-2.051-4.381-4.982-5.662-8.795c-1.283-3.811-1.924-8.318-1.924-13.521
			c0-5.275,0.641-9.838,1.924-13.686c1.281-3.848,3.15-6.799,5.607-8.852c2.453-2.049,5.402-3.076,8.848-3.076
			s6.414,1.027,8.904,3.076c2.49,2.053,4.398,4.986,5.717,8.795c1.32,3.812,1.979,8.355,1.979,13.633
			C700.857,633.506,700.179,637.92,698.823,641.768z"/>
		<path fill="#5D9DD1" d="M475.614,682.114h-23.857c-0.951,0-1.631,0.201-2.033,0.605c-0.402,0.402-0.605,1.08-0.605,2.033v9.014
			c0,0.951,0.203,1.631,0.605,2.033s1.082,0.604,2.033,0.604h9.564c0.584,0,0.99,0.111,1.209,0.33s0.33,0.625,0.33,1.207v58.484
			c0,0.953,0.221,1.633,0.658,2.033c0.441,0.404,1.137,0.605,2.09,0.605h10.006c0.951,0,1.627-0.201,2.031-0.605
			c0.404-0.4,0.605-1.08,0.605-2.033v-71.672c0-0.953-0.201-1.631-0.605-2.033C477.241,682.315,476.565,682.114,475.614,682.114z"/>
		<path fill="#5D9DD1" d="M544.374,685.575c-4.875-3.188-10.572-4.781-17.096-4.781c-6.521,0-12.219,1.629-17.094,4.891
			c-4.873,3.262-8.646,7.916-11.322,13.961c-2.674,6.047-4.012,13.176-4.012,21.385c0,8.133,1.32,15.168,3.957,21.105
			c2.639,5.936,6.393,10.461,11.268,13.574c4.873,3.115,10.572,4.674,17.096,4.674c6.521,0,12.238-1.613,17.148-4.836
			c4.91-3.225,8.701-7.861,11.379-13.906c2.674-6.049,4.01-13.176,4.01-21.383c0-8.062-1.336-15.061-4.01-20.994
			C553.02,693.327,549.247,688.762,544.374,685.575z M541.735,733.834c-1.355,3.85-3.279,6.854-5.771,9.016
			c-2.492,2.16-5.424,3.24-8.793,3.24c-3.371,0-6.303-1.023-8.795-3.078c-2.492-2.049-4.381-4.982-5.662-8.793
			c-1.283-3.811-1.924-8.316-1.924-13.521c0-5.275,0.641-9.838,1.924-13.684c1.281-3.85,3.15-6.799,5.607-8.852
			c2.455-2.053,5.404-3.078,8.85-3.078c3.443,0,6.412,1.025,8.902,3.078c2.492,2.053,4.398,4.986,5.719,8.793
			c1.318,3.812,1.977,8.357,1.977,13.631C543.768,725.573,543.091,729.987,541.735,733.834z"/>
		<path fill="#5D9DD1" d="M457.362,604.667c0.223,0.221,0.332,0.625,0.332,1.209v58.484c0,0.951,0.221,1.631,0.658,2.031
			c0.441,0.404,1.137,0.605,2.09,0.605h10.004c0.951,0,1.629-0.201,2.033-0.605c0.402-0.4,0.605-1.08,0.605-2.031v-71.676
			c0-0.951-0.203-1.629-0.605-2.033c-0.404-0.402-1.082-0.605-2.033-0.605h-23.855c-0.953,0-1.631,0.203-2.033,0.605
			c-0.404,0.404-0.604,1.082-0.604,2.033v9.016c0,0.953,0.199,1.633,0.604,2.033c0.402,0.404,1.08,0.605,2.033,0.605h9.566
			C456.741,604.338,457.145,604.448,457.362,604.667z"/>
		<path fill="#5D9DD1" d="M501.884,604.667c0.223,0.221,0.332,0.625,0.332,1.209v58.484c0,0.951,0.219,1.631,0.658,2.031
			c0.441,0.404,1.137,0.605,2.088,0.605h10.006c0.951,0,1.629-0.201,2.031-0.605c0.404-0.4,0.605-1.08,0.605-2.031v-71.676
			c0-0.951-0.201-1.629-0.605-2.033c-0.402-0.402-1.08-0.605-2.031-0.605h-23.855c-0.953,0-1.631,0.203-2.033,0.605
			c-0.404,0.404-0.605,1.082-0.605,2.033v9.016c0,0.953,0.201,1.633,0.605,2.033c0.402,0.404,1.08,0.605,2.033,0.605h9.564
			C501.26,604.338,501.665,604.448,501.884,604.667z"/>
		<path fill="#5D9DD1" d="M496.829,557.508c2.674-6.049,4.014-13.174,4.014-21.383c0-8.061-1.34-15.061-4.014-20.996
			c-2.678-5.938-6.449-10.5-11.32-13.688c-4.875-3.188-10.574-4.781-17.098-4.781c-6.521,0-12.219,1.633-17.092,4.893
			c-4.875,3.262-8.65,7.916-11.324,13.961s-4.01,13.174-4.01,21.383c0,8.133,1.316,15.168,3.955,21.105
			c2.639,5.936,6.395,10.461,11.27,13.576c4.871,3.115,10.568,4.67,17.094,4.67c6.521,0,12.238-1.609,17.148-4.834
			C490.36,568.189,494.151,563.553,496.829,557.508z M482.868,549.701c-1.355,3.85-3.279,6.855-5.771,9.014
			c-2.492,2.164-5.424,3.244-8.793,3.244c-3.371,0-6.305-1.025-8.795-3.078c-2.492-2.051-4.381-4.984-5.662-8.795
			c-1.283-3.811-1.924-8.316-1.924-13.521c0-5.275,0.641-9.838,1.924-13.686c1.281-3.848,3.15-6.797,5.607-8.85
			c2.453-2.051,5.404-3.076,8.85-3.076c3.443,0,6.412,1.025,8.904,3.076c2.49,2.053,4.398,4.984,5.717,8.795
			s1.977,8.355,1.977,13.631C484.901,541.441,484.223,545.854,482.868,549.701z"/>
		<path fill="#5D9DD1" d="M819.195,593.508c-4.877-3.188-10.572-4.781-17.096-4.781s-12.221,1.631-17.094,4.893
			s-8.648,7.914-11.322,13.959c-2.678,6.049-4.014,13.178-4.014,21.383c0,8.135,1.318,15.172,3.959,21.105
			c2.637,5.938,6.393,10.465,11.268,13.576c4.873,3.115,10.57,4.674,17.094,4.674c6.521,0,12.236-1.613,17.15-4.838
			c4.908-3.225,8.699-7.861,11.377-13.906c2.674-6.045,4.012-13.174,4.012-21.381c0-8.061-1.338-15.059-4.012-20.996
			C827.839,601.26,824.066,596.698,819.195,593.508z M816.556,641.768c-1.357,3.848-3.281,6.855-5.773,9.016s-5.424,3.24-8.793,3.24
			c-3.371,0-6.303-1.023-8.793-3.076c-2.492-2.051-4.381-4.982-5.664-8.795c-1.281-3.811-1.924-8.318-1.924-13.521
			c0-5.275,0.643-9.838,1.924-13.686c1.283-3.848,3.15-6.799,5.607-8.852c2.455-2.049,5.404-3.076,8.85-3.076
			s6.412,1.027,8.904,3.076c2.49,2.053,4.396,4.986,5.717,8.795c1.318,3.812,1.979,8.355,1.979,13.633
			C818.589,633.506,817.909,637.92,816.556,641.768z"/>
		<path fill="#5D9DD1" d="M917.359,571.414c4.908-3.225,8.701-7.861,11.379-13.906c2.674-6.049,4.012-13.174,4.012-21.383
			c0-8.061-1.338-15.061-4.012-20.996c-2.678-5.938-6.453-10.5-11.322-13.688c-4.877-3.188-10.574-4.781-17.096-4.781
			c-6.523,0-12.221,1.633-17.094,4.893c-4.875,3.262-8.648,7.916-11.324,13.961s-4.012,13.174-4.012,21.383
			c0,8.133,1.32,15.168,3.957,21.105c2.639,5.936,6.395,10.461,11.27,13.576c4.871,3.115,10.568,4.67,17.092,4.67
			S912.447,574.639,917.359,571.414z M885.753,550.086c-1.281-3.811-1.924-8.316-1.924-13.521c0-5.275,0.643-9.838,1.924-13.686
			s3.15-6.797,5.607-8.85c2.455-2.051,5.402-3.076,8.848-3.076s6.414,1.025,8.906,3.076c2.49,2.053,4.396,4.984,5.715,8.795
			c1.32,3.811,1.98,8.355,1.98,13.631c0,4.986-0.678,9.398-2.035,13.246c-1.357,3.85-3.281,6.855-5.771,9.014
			c-2.49,2.164-5.424,3.244-8.795,3.244c-3.369,0-6.303-1.025-8.793-3.078C888.923,556.83,887.034,553.896,885.753,550.086z"/>
		<path fill="#5D9DD1" d="M868.167,590.045h-23.855c-0.955,0-1.631,0.203-2.035,0.605c-0.402,0.404-0.604,1.082-0.604,2.033v9.016
			c0,0.953,0.201,1.633,0.604,2.033c0.404,0.404,1.08,0.605,2.035,0.605h9.564c0.584,0,0.988,0.109,1.209,0.328
			c0.219,0.221,0.328,0.625,0.328,1.209v58.484c0,0.951,0.221,1.631,0.66,2.031c0.439,0.404,1.135,0.605,2.09,0.605h10.004
			c0.951,0,1.627-0.201,2.031-0.605c0.404-0.4,0.605-1.08,0.605-2.031v-71.676c0-0.951-0.201-1.629-0.605-2.033
			C869.794,590.249,869.118,590.045,868.167,590.045z"/>
		<path fill="#5D9DD1" d="M968.417,574.326c0.404-0.402,0.607-1.082,0.607-2.033v-71.674c0-0.951-0.203-1.631-0.607-2.033
			c-0.402-0.404-1.08-0.607-2.031-0.607h-23.855c-0.953,0-1.631,0.203-2.033,0.607c-0.404,0.402-0.605,1.082-0.605,2.033v9.014
			c0,0.953,0.201,1.633,0.605,2.033c0.402,0.402,1.08,0.605,2.033,0.605h9.564c0.584,0,0.988,0.109,1.207,0.328
			c0.221,0.221,0.332,0.623,0.332,1.209v58.484c0,0.951,0.219,1.631,0.658,2.033c0.441,0.402,1.135,0.605,2.09,0.605h10.004
			C967.337,574.932,968.015,574.729,968.417,574.326z"/>
		<path fill="#5D9DD1" d="M852.777,557.508c2.674-6.049,4.012-13.174,4.012-21.383c0-8.061-1.338-15.061-4.012-20.996
			c-2.678-5.938-6.451-10.5-11.324-13.688c-4.875-3.188-10.57-4.781-17.096-4.781c-6.521,0-12.219,1.633-17.092,4.893
			c-4.875,3.262-8.648,7.916-11.322,13.961c-2.676,6.045-4.012,13.174-4.012,21.383c0,8.133,1.318,15.168,3.955,21.105
			c2.639,5.936,6.393,10.461,11.268,13.576c4.873,3.115,10.572,4.67,17.094,4.67c6.523,0,12.24-1.609,17.15-4.834
			C846.306,568.189,850.099,563.553,852.777,557.508z M838.814,549.701c-1.355,3.85-3.281,6.855-5.77,9.014
			c-2.492,2.164-5.426,3.244-8.797,3.244s-6.303-1.025-8.793-3.078c-2.492-2.051-4.379-4.984-5.66-8.795
			c-1.285-3.811-1.924-8.316-1.924-13.521c0-5.275,0.639-9.838,1.924-13.686c1.281-3.848,3.148-6.797,5.607-8.85
			c2.451-2.051,5.402-3.076,8.846-3.076c3.445,0,6.412,1.025,8.906,3.076c2.49,2.053,4.398,4.984,5.715,8.795
			c1.322,3.811,1.98,8.355,1.98,13.631C840.849,541.441,840.171,545.854,838.814,549.701z"/>
		<path fill="#5D9DD1" d="M936.927,593.508c-4.875-3.188-10.57-4.781-17.094-4.781s-12.221,1.631-17.094,4.893
			c-4.875,3.262-8.648,7.914-11.324,13.959c-2.674,6.049-4.012,13.178-4.012,21.383c0,8.135,1.32,15.172,3.957,21.105
			c2.639,5.938,6.395,10.465,11.268,13.576c4.873,3.115,10.572,4.674,17.094,4.674c6.523,0,12.238-1.613,17.15-4.838
			c4.91-3.225,8.701-7.861,11.379-13.906c2.674-6.045,4.014-13.174,4.014-21.381c0-8.061-1.34-15.059-4.014-20.996
			C945.573,601.26,941.8,596.698,936.927,593.508z M934.29,641.768c-1.357,3.848-3.281,6.855-5.773,9.016
			c-2.49,2.16-5.424,3.24-8.795,3.24c-3.369,0-6.303-1.023-8.791-3.076c-2.494-2.051-4.381-4.982-5.662-8.795
			c-1.285-3.811-1.926-8.318-1.926-13.521c0-5.275,0.641-9.838,1.926-13.686c1.281-3.848,3.148-6.799,5.605-8.852
			c2.453-2.049,5.404-3.076,8.848-3.076c3.445,0,6.414,1.027,8.904,3.076c2.492,2.053,4.398,4.986,5.717,8.795
			c1.32,3.812,1.979,8.355,1.979,13.633C936.322,633.506,935.646,637.92,934.29,641.768z"/>
		<path fill="#5D9DD1" d="M738.066,685.575c-4.875-3.188-10.57-4.781-17.094-4.781s-12.221,1.629-17.094,4.891
			c-4.875,3.262-8.648,7.916-11.324,13.961c-2.676,6.047-4.012,13.176-4.012,21.385c0,8.133,1.32,15.168,3.959,21.105
			c2.637,5.936,6.393,10.461,11.268,13.574c4.871,3.115,10.568,4.674,17.094,4.674c6.521,0,12.238-1.613,17.15-4.836
			c4.908-3.225,8.701-7.861,11.377-13.906c2.676-6.049,4.012-13.176,4.012-21.383c0-8.062-1.336-15.061-4.012-20.994
			C746.714,693.327,742.939,688.762,738.066,685.575z M735.429,733.834c-1.357,3.85-3.281,6.854-5.771,9.016
			c-2.49,2.16-5.424,3.24-8.795,3.24s-6.303-1.023-8.795-3.078c-2.49-2.049-4.381-4.982-5.66-8.793
			c-1.283-3.811-1.924-8.316-1.924-13.521c0-5.275,0.641-9.838,1.924-13.684c1.279-3.85,3.148-6.799,5.605-8.852
			c2.455-2.053,5.404-3.078,8.85-3.078c3.443,0,6.412,1.025,8.902,3.078c2.492,2.053,4.398,4.986,5.719,8.793
			c1.318,3.812,1.979,8.357,1.979,13.631C737.462,725.573,736.782,729.987,735.429,733.834z"/>
		<path fill="#5D9DD1" d="M738.339,666.391c0.441,0.404,1.137,0.605,2.092,0.605h10.002c0.953,0,1.631-0.201,2.033-0.605
			c0.402-0.4,0.605-1.08,0.605-2.031v-71.676c0-0.951-0.203-1.629-0.605-2.033c-0.402-0.402-1.08-0.605-2.033-0.605h-23.855
			c-0.953,0-1.631,0.203-2.033,0.605c-0.404,0.404-0.605,1.082-0.605,2.033v9.016c0,0.953,0.201,1.633,0.605,2.033
			c0.402,0.404,1.08,0.605,2.033,0.605h9.564c0.586,0,0.99,0.109,1.209,0.328c0.221,0.221,0.33,0.625,0.33,1.209v58.484
			C737.681,665.311,737.904,665.991,738.339,666.391z"/>
		<path fill="#5D9DD1" d="M421.473,593.508c-4.877-3.188-10.572-4.781-17.096-4.781c-6.521,0-12.219,1.631-17.092,4.893
			c-4.875,3.262-8.65,7.914-11.324,13.959c-2.676,6.049-4.014,13.178-4.014,21.383c0,8.135,1.322,15.172,3.961,21.105
			c2.637,5.938,6.391,10.465,11.268,13.576c4.871,3.115,10.568,4.674,17.092,4.674s12.238-1.613,17.15-4.838
			c4.908-3.225,8.701-7.861,11.379-13.906c2.672-6.045,4.012-13.174,4.012-21.381c0-8.061-1.34-15.059-4.012-20.996
			C430.12,601.26,426.346,596.698,421.473,593.508z M418.835,641.768c-1.355,3.848-3.281,6.855-5.771,9.016s-5.424,3.24-8.795,3.24
			s-6.305-1.023-8.793-3.076c-2.492-2.051-4.381-4.982-5.662-8.795c-1.283-3.811-1.924-8.318-1.924-13.521
			c0-5.275,0.641-9.838,1.924-13.686c1.281-3.848,3.15-6.799,5.605-8.852c2.457-2.049,5.406-3.076,8.85-3.076
			c3.445,0,6.412,1.027,8.904,3.076c2.49,2.053,4.398,4.986,5.717,8.795c1.32,3.812,1.979,8.355,1.979,13.633
			C420.868,633.506,420.19,637.92,418.835,641.768z"/>
		<path fill="#5D9DD1" d="M776.818,557.508c2.676-6.049,4.012-13.174,4.012-21.383c0-8.061-1.336-15.061-4.012-20.996
			c-2.676-5.938-6.449-10.5-11.322-13.688c-4.875-3.188-10.572-4.781-17.094-4.781c-6.523,0-12.223,1.633-17.094,4.893
			c-4.877,3.262-8.648,7.916-11.324,13.961s-4.012,13.174-4.012,21.383c0,8.133,1.318,15.168,3.957,21.105
			c2.639,5.936,6.393,10.461,11.268,13.576c4.873,3.115,10.57,4.67,17.096,4.67c6.521,0,12.236-1.609,17.148-4.834
			C770.349,568.189,774.142,563.553,776.818,557.508z M762.857,549.701c-1.355,3.85-3.281,6.855-5.77,9.014
			c-2.494,2.164-5.424,3.244-8.795,3.244c-3.373,0-6.305-1.025-8.795-3.078c-2.492-2.051-4.379-4.984-5.662-8.795
			s-1.924-8.316-1.924-13.521c0-5.275,0.641-9.838,1.924-13.686s3.15-6.797,5.607-8.85c2.453-2.051,5.404-3.076,8.85-3.076
			c3.443,0,6.412,1.025,8.904,3.076c2.49,2.053,4.396,4.984,5.717,8.795c1.318,3.811,1.977,8.355,1.977,13.631
			C764.89,541.441,764.21,545.854,762.857,549.701z"/>
		<path fill="#5D9DD1" d="M814.025,685.575c-4.875-3.188-10.57-4.781-17.094-4.781c-6.521,0-12.221,1.629-17.092,4.891
			c-4.877,3.262-8.648,7.916-11.324,13.961c-2.676,6.047-4.014,13.176-4.014,21.385c0,8.133,1.322,15.168,3.959,21.105
			c2.637,5.936,6.393,10.461,11.268,13.574c4.873,3.115,10.57,4.674,17.092,4.674c6.523,0,12.238-1.613,17.15-4.836
			c4.91-3.225,8.701-7.861,11.379-13.906c2.674-6.049,4.014-13.176,4.014-21.383c0-8.062-1.34-15.061-4.014-20.994
			C822.671,693.327,818.898,688.762,814.025,685.575z M811.388,733.834c-1.357,3.85-3.281,6.854-5.771,9.016
			c-2.492,2.16-5.424,3.24-8.797,3.24c-3.369,0-6.301-1.023-8.791-3.078c-2.494-2.049-4.381-4.982-5.664-8.793
			c-1.281-3.811-1.924-8.316-1.924-13.521c0-5.275,0.643-9.838,1.924-13.684c1.283-3.85,3.15-6.799,5.607-8.852
			c2.455-2.053,5.404-3.078,8.848-3.078c3.445,0,6.414,1.025,8.906,3.078c2.49,2.053,4.396,4.986,5.717,8.793
			c1.318,3.812,1.979,8.357,1.979,13.631C813.421,725.573,812.743,729.987,811.388,733.834z"/>
		<path fill="#5D9DD1" d="M328.307,387.445c4.873,3.117,10.572,4.673,17.094,4.673c6.523,0,12.238-1.611,17.15-4.837
			c4.908-3.225,8.701-7.86,11.379-13.905c2.674-6.047,4.01-13.174,4.01-21.382c0-8.062-1.336-15.062-4.01-20.996
			c-2.678-5.937-6.453-10.498-11.324-13.687c-4.875-3.19-10.572-4.784-17.094-4.784c-6.523,0-12.223,1.634-17.094,4.893
			c-4.875,3.262-8.648,7.915-11.324,13.962c-2.676,6.046-4.014,13.175-4.014,21.381c0,8.136,1.32,15.171,3.959,21.106
			C319.678,379.806,323.432,384.332,328.307,387.445z M330.946,338.747c1.281-3.847,3.15-6.797,5.605-8.849s5.406-3.078,8.85-3.078
			s6.414,1.026,8.906,3.078c2.49,2.052,4.396,4.984,5.715,8.794c1.32,3.812,1.979,8.354,1.979,13.63c0,4.987-0.676,9.4-2.033,13.247
			c-1.357,3.849-3.281,6.854-5.771,9.014c-2.492,2.163-5.424,3.244-8.795,3.244s-6.305-1.025-8.795-3.078
			c-2.49-2.052-4.379-4.983-5.66-8.795c-1.283-3.809-1.924-8.317-1.924-13.521C329.022,347.156,329.663,342.595,330.946,338.747z"/>
		<path fill="#5D9DD1" d="M545.364,444.059c0-8.06-1.338-15.06-4.012-20.997c-2.678-5.936-6.451-10.498-11.322-13.687
			c-4.877-3.186-10.572-4.781-17.094-4.781c-6.525,0-12.223,1.633-17.096,4.891c-4.875,3.263-8.648,7.916-11.322,13.961
			c-2.676,6.048-4.012,13.177-4.012,21.384c0,8.133,1.318,15.17,3.957,21.105s6.393,10.463,11.268,13.574
			c4.873,3.117,10.568,4.674,17.094,4.674c6.521,0,12.238-1.613,17.148-4.836c4.91-3.225,8.701-7.863,11.379-13.906
			C544.026,459.395,545.364,452.266,545.364,444.059z M527.389,457.635c-1.355,3.85-3.279,6.855-5.77,9.016
			c-2.494,2.162-5.426,3.24-8.795,3.24c-3.371,0-6.303-1.023-8.795-3.076c-2.492-2.051-4.379-4.982-5.66-8.793
			c-1.285-3.811-1.926-8.318-1.926-13.521c0-5.278,0.641-9.839,1.926-13.687c1.281-3.848,3.148-6.799,5.605-8.85
			c2.455-2.051,5.404-3.076,8.85-3.076s6.412,1.025,8.904,3.076c2.49,2.051,4.396,4.984,5.715,8.793
			c1.32,3.812,1.979,8.356,1.979,13.632C529.423,449.375,528.747,453.789,527.389,457.635z"/>
		<path fill="#5D9DD1" d="M475.444,390.193c0.439,0.404,1.135,0.605,2.09,0.605h10.004c0.951,0,1.629-0.201,2.031-0.605
			c0.404-0.402,0.605-1.08,0.605-2.032v-71.674c0-0.953-0.201-1.631-0.605-2.033c-0.402-0.403-1.08-0.605-2.031-0.605h-23.855
			c-0.955,0-1.633,0.202-2.035,0.605c-0.402,0.402-0.604,1.08-0.604,2.033v9.013c0,0.953,0.201,1.633,0.604,2.033
			c0.402,0.405,1.08,0.605,2.035,0.605h9.564c0.584,0,0.988,0.11,1.207,0.328c0.221,0.221,0.332,0.626,0.332,1.209v58.485
			C474.786,389.113,475.005,389.791,475.444,390.193z"/>
		<path fill="#5D9DD1" d="M534.259,144.006h9.564c0.584,0,0.988,0.11,1.209,0.33c0.219,0.22,0.33,0.623,0.33,1.208v58.482
			c0,0.952,0.221,1.634,0.658,2.033c0.439,0.405,1.137,0.605,2.09,0.605h10.004c0.951,0,1.629-0.2,2.033-0.605
			c0.402-0.399,0.605-1.081,0.605-2.033v-71.673c0-0.952-0.203-1.631-0.605-2.033c-0.404-0.403-1.082-0.605-2.033-0.605h-23.855
			c-0.953,0-1.633,0.202-2.033,0.605c-0.404,0.402-0.605,1.081-0.605,2.033v9.014c0,0.953,0.201,1.632,0.605,2.034
			C532.626,143.805,533.305,144.006,534.259,144.006z"/>
		<path fill="#5D9DD1" d="M379.096,557.508c2.676-6.049,4.014-13.174,4.014-21.383c0-8.061-1.338-15.061-4.014-20.996
			c-2.676-5.938-6.451-10.5-11.322-13.688c-4.877-3.188-10.572-4.781-17.096-4.781s-12.219,1.633-17.094,4.893
			c-4.875,3.262-8.646,7.916-11.322,13.961s-4.012,13.174-4.012,21.383c0,8.133,1.318,15.168,3.957,21.105
			c2.637,5.936,6.393,10.461,11.268,13.576c4.873,3.115,10.57,4.67,17.094,4.67s12.238-1.609,17.148-4.834
			C372.626,568.189,376.421,563.553,379.096,557.508z M365.135,549.701c-1.357,3.85-3.281,6.855-5.771,9.014
			c-2.492,2.164-5.424,3.244-8.795,3.244s-6.303-1.025-8.793-3.078c-2.492-2.051-4.381-4.984-5.662-8.795
			c-1.283-3.811-1.924-8.316-1.924-13.521c0-5.275,0.641-9.838,1.924-13.686c1.281-3.848,3.15-6.797,5.605-8.85
			c2.455-2.051,5.404-3.076,8.85-3.076s6.412,1.025,8.904,3.076c2.492,2.053,4.398,4.984,5.717,8.795s1.98,8.355,1.98,13.631
			C367.171,541.441,366.491,545.854,365.135,549.701z"/>
		<path fill="#5D9DD1" d="M449.175,482.258c0.439,0.406,1.135,0.605,2.088,0.605h10.006c0.949,0,1.629-0.199,2.031-0.605
			c0.404-0.4,0.607-1.08,0.607-2.031v-71.674c0-0.951-0.203-1.631-0.607-2.034c-0.402-0.402-1.082-0.604-2.031-0.604h-23.857
			c-0.953,0-1.629,0.202-2.033,0.604c-0.402,0.403-0.604,1.083-0.604,2.034v9.016c0,0.952,0.201,1.63,0.604,2.032
			c0.404,0.404,1.08,0.604,2.033,0.604h9.566c0.584,0,0.988,0.111,1.207,0.33c0.221,0.219,0.332,0.622,0.332,1.207v58.485
			C448.516,481.178,448.735,481.857,449.175,482.258z"/>
		<path fill="#5D9DD1" d="M572.237,236.073h9.564c0.586,0,0.988,0.109,1.209,0.329c0.219,0.22,0.33,0.624,0.33,1.209v58.483
			c0,0.952,0.219,1.633,0.66,2.033c0.439,0.404,1.135,0.605,2.088,0.605h10.006c0.949,0,1.627-0.201,2.031-0.605
			c0.402-0.4,0.605-1.081,0.605-2.033v-71.676c0-0.951-0.203-1.629-0.605-2.033c-0.404-0.401-1.082-0.604-2.031-0.604h-23.857
			c-0.953,0-1.631,0.202-2.033,0.604c-0.402,0.404-0.604,1.082-0.604,2.033v9.017c0,0.953,0.201,1.631,0.604,2.033
			C570.606,235.872,571.284,236.073,572.237,236.073z"/>
		<path fill="#5D9DD1" d="M651.993,144.006h9.564c0.584,0,0.988,0.11,1.209,0.33c0.219,0.22,0.33,0.623,0.33,1.208v58.482
			c0,0.952,0.221,1.634,0.658,2.033c0.439,0.405,1.135,0.605,2.088,0.605h10.006c0.951,0,1.627-0.2,2.033-0.605
			c0.402-0.399,0.605-1.081,0.605-2.033v-71.673c0-0.952-0.203-1.631-0.605-2.033c-0.406-0.403-1.082-0.605-2.033-0.605h-23.855
			c-0.953,0-1.631,0.202-2.035,0.605c-0.402,0.402-0.604,1.081-0.604,2.033v9.014c0,0.953,0.201,1.632,0.604,2.034
			C650.363,143.805,651.04,144.006,651.993,144.006z"/>
		<path fill="#5D9DD1" d="M581.639,408.552c0-0.951-0.201-1.631-0.605-2.034c-0.404-0.402-1.082-0.604-2.033-0.604h-23.855
			c-0.953,0-1.631,0.202-2.035,0.604c-0.402,0.403-0.602,1.083-0.602,2.034v9.016c0,0.952,0.199,1.63,0.602,2.032
			c0.404,0.404,1.082,0.604,2.035,0.604h9.564c0.584,0,0.988,0.111,1.209,0.33c0.219,0.219,0.33,0.622,0.33,1.207v58.485
			c0,0.951,0.219,1.631,0.658,2.031c0.439,0.406,1.135,0.605,2.09,0.605h10.004c0.951,0,1.629-0.199,2.033-0.605
			c0.404-0.4,0.605-1.08,0.605-2.031V408.552z"/>
		<path fill="#5D9DD1" d="M556.298,317.311c-4.875-3.19-10.57-4.784-17.094-4.784s-12.221,1.634-17.092,4.893
			c-4.875,3.262-8.65,7.915-11.326,13.962c-2.674,6.046-4.01,13.175-4.01,21.381c0,8.136,1.316,15.171,3.957,21.106
			c2.637,5.938,6.393,10.463,11.268,13.576c4.871,3.117,10.57,4.673,17.094,4.673s12.238-1.611,17.148-4.837
			c4.91-3.225,8.701-7.86,11.379-13.905c2.674-6.047,4.012-13.174,4.012-21.382c0-8.062-1.338-15.062-4.012-20.996
			C564.944,325.061,561.171,320.5,556.298,317.311z M553.659,365.569c-1.355,3.849-3.279,6.854-5.771,9.014
			c-2.49,2.163-5.424,3.244-8.793,3.244c-3.371,0-6.303-1.025-8.797-3.078c-2.49-2.052-4.379-4.983-5.658-8.795
			c-1.285-3.809-1.924-8.317-1.924-13.521c0-5.276,0.639-9.837,1.924-13.686c1.279-3.847,3.148-6.797,5.604-8.849
			c2.457-2.052,5.404-3.078,8.852-3.078c3.443,0,6.412,1.026,8.902,3.078c2.492,2.052,4.398,4.984,5.719,8.794
			c1.318,3.812,1.977,8.354,1.977,13.63C555.692,357.309,555.016,361.722,553.659,365.569z"/>
		<path fill="#5D9DD1" d="M501.61,239.315c-2.676,6.046-4.014,13.175-4.014,21.381c0,8.136,1.32,15.171,3.959,21.106
			c2.637,5.937,6.391,10.463,11.27,13.576c4.871,3.117,10.568,4.673,17.092,4.673s12.238-1.61,17.148-4.837
			c4.91-3.224,8.701-7.86,11.379-13.906c2.674-6.046,4.012-13.173,4.012-21.381c0-8.062-1.338-15.062-4.012-20.996
			c-2.678-5.936-6.449-10.501-11.322-13.688c-4.875-3.186-10.572-4.78-17.096-4.78s-12.221,1.631-17.094,4.891
			C508.057,228.617,504.284,233.269,501.61,239.315z M515.462,246.68c1.281-3.848,3.148-6.797,5.605-8.85
			c2.455-2.05,5.404-3.077,8.85-3.077s6.412,1.027,8.902,3.077c2.494,2.053,4.4,4.985,5.719,8.797
			c1.318,3.808,1.979,8.353,1.979,13.629c0,4.986-0.68,9.399-2.033,13.246c-1.357,3.848-3.281,6.854-5.771,9.016
			c-2.494,2.162-5.426,3.242-8.795,3.242c-3.371,0-6.303-1.026-8.793-3.077c-2.492-2.052-4.381-4.984-5.662-8.795
			c-1.283-3.811-1.926-8.318-1.926-13.521C513.536,255.091,514.178,250.528,515.462,246.68z"/>
		<path fill="#5D9DD1" d="M592.577,203.312c4.873,3.116,10.57,4.673,17.092,4.673c6.525,0,12.242-1.612,17.152-4.836
			c4.908-3.226,8.699-7.861,11.379-13.907c2.672-6.046,4.012-13.174,4.012-21.381c0-8.062-1.34-15.06-4.012-20.995
			c-2.68-5.938-6.451-10.5-11.324-13.688c-4.877-3.188-10.574-4.782-17.094-4.782c-6.523,0-12.223,1.633-17.096,4.892
			c-4.873,3.263-8.646,7.915-11.322,13.961s-4.014,13.174-4.014,21.382c0,8.135,1.32,15.17,3.957,21.106
			C583.948,195.673,587.704,200.199,592.577,203.312z M595.214,154.613c1.283-3.846,3.152-6.796,5.607-8.849
			c2.455-2.05,5.404-3.077,8.848-3.077c3.447,0,6.416,1.027,8.906,3.077c2.492,2.053,4.396,4.986,5.717,8.796
			c1.318,3.81,1.979,8.354,1.979,13.63c0,4.985-0.678,9.399-2.033,13.245c-1.355,3.851-3.281,6.854-5.773,9.017
			c-2.49,2.161-5.422,3.241-8.795,3.241c-3.369,0-6.301-1.025-8.791-3.076c-2.492-2.052-4.381-4.984-5.664-8.795
			c-1.281-3.811-1.924-8.318-1.924-13.522C593.29,163.025,593.932,158.461,595.214,154.613z"/>
		<path fill="#5D9DD1" d="M522.385,574.326c0.441,0.402,1.137,0.605,2.09,0.605h10.006c0.949,0,1.627-0.203,2.031-0.605
			s0.605-1.082,0.605-2.033v-71.674c0-0.951-0.201-1.631-0.605-2.033c-0.404-0.404-1.082-0.607-2.031-0.607h-23.855
			c-0.955,0-1.633,0.203-2.037,0.607c-0.4,0.402-0.602,1.082-0.602,2.033v9.014c0,0.953,0.201,1.633,0.602,2.033
			c0.404,0.402,1.082,0.605,2.037,0.605h9.564c0.584,0,0.988,0.109,1.209,0.328c0.221,0.221,0.328,0.623,0.328,1.209v58.484
			C521.727,573.244,521.948,573.924,522.385,574.326z"/>
		<path fill="#5D9DD1" d="M474.843,203.312c4.875,3.116,10.572,4.673,17.096,4.673c6.521,0,12.236-1.612,17.148-4.836
			c4.908-3.226,8.703-7.861,11.377-13.907c2.676-6.046,4.014-13.174,4.014-21.381c0-8.062-1.338-15.06-4.014-20.995
			c-2.674-5.938-6.449-10.5-11.322-13.688c-4.875-3.188-10.57-4.782-17.094-4.782s-12.223,1.633-17.094,4.892
			c-4.875,3.263-8.648,7.915-11.322,13.961c-2.676,6.046-4.014,13.174-4.014,21.382c0,8.135,1.32,15.17,3.957,21.106
			C466.214,195.673,469.969,200.199,474.843,203.312z M477.483,154.613c1.281-3.846,3.15-6.796,5.605-8.849
			c2.453-2.05,5.404-3.077,8.85-3.077c3.443,0,6.412,1.027,8.904,3.077c2.49,2.053,4.396,4.986,5.717,8.796
			c1.318,3.81,1.977,8.354,1.977,13.63c0,4.985-0.678,9.399-2.031,13.245c-1.357,3.851-3.281,6.854-5.773,9.017
			c-2.49,2.161-5.424,3.241-8.793,3.241c-3.373,0-6.305-1.025-8.795-3.076c-2.492-2.052-4.379-4.984-5.66-8.795
			c-1.283-3.811-1.928-8.318-1.928-13.522C475.555,163.025,476.2,158.461,477.483,154.613z"/>
		<path fill="#5D9DD1" d="M367.774,409.375c-4.877-3.186-10.572-4.781-17.096-4.781s-12.219,1.633-17.094,4.891
			c-4.875,3.263-8.646,7.916-11.322,13.961c-2.676,6.048-4.012,13.177-4.012,21.384c0,8.133,1.318,15.17,3.957,21.105
			c2.637,5.936,6.393,10.463,11.268,13.574c4.873,3.117,10.57,4.674,17.094,4.674s12.238-1.613,17.148-4.836
			c4.908-3.225,8.703-7.863,11.379-13.906c2.676-6.047,4.014-13.176,4.014-21.383c0-8.06-1.338-15.06-4.014-20.997
			C376.421,417.126,372.645,412.564,367.774,409.375z M365.135,457.635c-1.357,3.85-3.281,6.855-5.771,9.016
			c-2.492,2.162-5.424,3.24-8.795,3.24s-6.303-1.023-8.793-3.076c-2.492-2.051-4.381-4.982-5.662-8.793
			c-1.283-3.811-1.924-8.318-1.924-13.521c0-5.278,0.641-9.839,1.924-13.687c1.281-3.848,3.15-6.799,5.605-8.85
			s5.404-3.076,8.85-3.076s6.412,1.025,8.904,3.076s4.398,4.984,5.717,8.793c1.318,3.812,1.98,8.356,1.98,13.632
			C367.171,449.375,366.491,453.789,365.135,457.635z"/>
		<path fill="#5D9DD1" d="M395.089,295.378c4.873,3.117,10.572,4.673,17.096,4.673c6.521,0,12.236-1.61,17.148-4.837
			c4.91-3.224,8.701-7.86,11.379-13.906c2.676-6.046,4.01-13.173,4.01-21.381c0-8.062-1.334-15.062-4.01-20.996
			c-2.678-5.936-6.451-10.501-11.324-13.688c-4.875-3.186-10.57-4.78-17.094-4.78s-12.221,1.631-17.094,4.891
			c-4.875,3.264-8.65,7.916-11.324,13.962s-4.01,13.175-4.01,21.381c0,8.136,1.318,15.171,3.955,21.106
			C386.46,287.739,390.214,292.265,395.089,295.378z M397.727,246.68c1.281-3.848,3.148-6.797,5.607-8.85
			c2.455-2.05,5.402-3.077,8.85-3.077c3.443,0,6.412,1.027,8.902,3.077c2.492,2.053,4.398,4.985,5.719,8.797
			c1.318,3.808,1.977,8.353,1.977,13.629c0,4.986-0.678,9.399-2.031,13.246c-1.357,3.848-3.281,6.854-5.771,9.016
			c-2.494,2.162-5.426,3.242-8.795,3.242c-3.373,0-6.303-1.026-8.795-3.077c-2.492-2.052-4.381-4.984-5.662-8.795
			c-1.283-3.811-1.922-8.318-1.922-13.521C395.805,255.091,396.444,250.528,397.727,246.68z"/>
		<path fill="#5D9DD1" d="M352.712,590.045h-23.854c-0.953,0-1.633,0.203-2.037,0.605c-0.4,0.404-0.604,1.082-0.604,2.033v9.016
			c0,0.953,0.203,1.633,0.604,2.033c0.404,0.404,1.084,0.605,2.037,0.605h9.562c0.586,0,0.988,0.109,1.211,0.328
			c0.217,0.221,0.328,0.625,0.328,1.209v58.484c0,0.951,0.221,1.631,0.66,2.031c0.439,0.404,1.135,0.605,2.088,0.605h10.004
			c0.951,0,1.629-0.201,2.033-0.605c0.402-0.4,0.605-1.08,0.605-2.031v-71.676c0-0.951-0.203-1.629-0.605-2.033
			C354.341,590.249,353.663,590.045,352.712,590.045z"/>
		<path fill="#5D9DD1" d="M566.907,574.326c0.439,0.402,1.135,0.605,2.09,0.605h10.004c0.951,0,1.629-0.203,2.033-0.605
			s0.605-1.082,0.605-2.033v-71.674c0-0.951-0.201-1.631-0.605-2.033c-0.404-0.404-1.082-0.607-2.033-0.607h-23.855
			c-0.953,0-1.631,0.203-2.035,0.607c-0.402,0.402-0.602,1.082-0.602,2.033v9.014c0,0.953,0.199,1.633,0.602,2.033
			c0.404,0.402,1.082,0.605,2.035,0.605h9.564c0.584,0,0.988,0.109,1.209,0.328c0.219,0.221,0.33,0.623,0.33,1.209v58.484
			C566.249,573.244,566.468,573.924,566.907,574.326z"/>
		<path fill="#5D9DD1" d="M336.77,236.073h9.564c0.586,0,0.988,0.109,1.209,0.329s0.33,0.624,0.33,1.209v58.483
			c0,0.952,0.221,1.633,0.66,2.033c0.439,0.404,1.135,0.605,2.088,0.605h10.006c0.951,0,1.629-0.201,2.033-0.605
			c0.4-0.4,0.604-1.081,0.604-2.033v-71.676c0-0.951-0.203-1.629-0.604-2.033c-0.404-0.401-1.082-0.604-2.033-0.604H336.77
			c-0.951,0-1.631,0.202-2.033,0.604c-0.402,0.404-0.604,1.082-0.604,2.033v9.017c0,0.953,0.201,1.631,0.604,2.033
			C335.139,235.872,335.819,236.073,336.77,236.073z"/>
		<path fill="#5D9DD1" d="M454.505,236.073h9.564c0.586,0,0.99,0.109,1.209,0.329c0.223,0.22,0.33,0.624,0.33,1.209v58.483
			c0,0.952,0.221,1.633,0.66,2.033c0.439,0.404,1.135,0.605,2.088,0.605h10.004c0.951,0,1.631-0.201,2.033-0.605
			c0.402-0.4,0.605-1.081,0.605-2.033v-71.676c0-0.951-0.203-1.629-0.605-2.033c-0.402-0.401-1.082-0.604-2.033-0.604h-23.855
			c-0.951,0-1.631,0.202-2.033,0.604c-0.404,0.404-0.604,1.082-0.604,2.033v9.017c0,0.953,0.199,1.631,0.604,2.033
			C452.874,235.872,453.553,236.073,454.505,236.073z"/>
		<path fill="#5D9DD1" d="M419.384,408.552c0-0.951-0.201-1.631-0.605-2.034c-0.404-0.402-1.08-0.604-2.033-0.604h-23.855
			c-0.951,0-1.631,0.202-2.033,0.604c-0.404,0.403-0.604,1.083-0.604,2.034v9.016c0,0.952,0.199,1.63,0.604,2.032
			c0.402,0.404,1.082,0.604,2.033,0.604h9.564c0.586,0,0.99,0.111,1.209,0.33c0.221,0.219,0.33,0.622,0.33,1.207v58.485
			c0,0.951,0.221,1.631,0.658,2.031c0.441,0.406,1.135,0.605,2.092,0.605h10.002c0.953,0,1.629-0.199,2.033-0.605
			c0.404-0.4,0.605-1.08,0.605-2.031V408.552z"/>
		<path fill="#5D9DD1" d="M438.565,317.311c-4.875-3.19-10.572-4.784-17.094-4.784c-6.523,0-12.223,1.634-17.094,4.893
			c-4.875,3.262-8.648,7.915-11.324,13.962c-2.676,6.046-4.01,13.175-4.01,21.381c0,8.136,1.316,15.171,3.957,21.106
			c2.637,5.938,6.393,10.463,11.268,13.576c4.871,3.117,10.568,4.673,17.094,4.673c6.521,0,12.238-1.611,17.148-4.837
			c4.908-3.225,8.699-7.86,11.379-13.905c2.674-6.047,4.01-13.174,4.01-21.382c0-8.062-1.336-15.062-4.01-20.996
			C447.21,325.061,443.438,320.5,438.565,317.311z M435.927,365.569c-1.355,3.849-3.281,6.854-5.77,9.014
			c-2.494,2.163-5.426,3.244-8.795,3.244c-3.371,0-6.305-1.025-8.795-3.078c-2.49-2.052-4.379-4.983-5.662-8.795
			c-1.283-3.809-1.924-8.317-1.924-13.521c0-5.276,0.641-9.837,1.924-13.686c1.283-3.847,3.15-6.797,5.607-8.849
			c2.453-2.052,5.404-3.078,8.85-3.078c3.443,0,6.412,1.026,8.902,3.078c2.492,2.052,4.4,4.984,5.719,8.794
			c1.318,3.812,1.977,8.354,1.977,13.63C437.96,357.309,437.282,361.722,435.927,365.569z"/>
		<path fill="#5D9DD1" d="M404.651,574.326c0.441,0.402,1.135,0.605,2.092,0.605h10.002c0.953,0,1.629-0.203,2.033-0.605
			s0.605-1.082,0.605-2.033v-71.674c0-0.951-0.201-1.631-0.605-2.033c-0.404-0.404-1.08-0.607-2.033-0.607h-23.855
			c-0.951,0-1.631,0.203-2.033,0.607c-0.404,0.402-0.604,1.082-0.604,2.033v9.014c0,0.953,0.199,1.633,0.604,2.033
			c0.402,0.402,1.082,0.605,2.033,0.605h9.564c0.586,0,0.99,0.109,1.209,0.328c0.221,0.221,0.33,0.623,0.33,1.209v58.484
			C403.993,573.244,404.214,573.924,404.651,574.326z"/>
	</g>
	<path fill="#FFFFFF" d="M935.679,293.634l-1.648-2.311c8.906-1.322,18.465-1.65,18.803-6.271
		c0.656-3.624-19.463-4.618-36.625,4.293c-12.197,7.92-37.271,9.236-45.842,7.156c-14.52-3.393-38.24-7.137-55.084-2.601
		c-1.244-0.382-2.48-0.651-3.709-0.867l16.531-4.257l4.303-2.613l35.811-32.152l48.898-22.317l-1.299-5.225l-21.611,1.283
		l21.031-9.93l-0.646-5.164l-16.102-3.133l9.258-13.704l-3.684-3.878l-36.025,21.731l-4.816,4.214l-6.125,11.053
		c-18.375,3.459-48.666,9.163-49.811,9.35l-4.68,1.685l-29.426,17.664l-43.047,9.605l-88.322-179.8l-5.379-0.013l-92.029,185.162
		c-8.119-6.611-21.479-9.965-45.885-12.379c-23.596-20.971-49.072-23.971-62.553-26.219c-20.965-4.123-32.768-14.391-38.83-25.709
		c-5.705-12.271-35.309-9.945-33.09-5.041c4.863,3.564,14.371,1.907,16.484,2.66c-0.869,2.608,1.246,4.869,1.246,4.869
		c-5.492-2.99-28.207-9.853-29.949-6.883c-2.584,4.436,24.965,12.742,24.965,12.742l-0.381,1.883
		c-5.244-1.993-26.068-7.491-26.781-3.367c-0.68,3.988,21.037,7.619,26.16,8.203v1.904c-5.25-1.495-21.232-2.871-21.066-0.452
		c-0.033,2.445,16.189,6.327,22.684,6.81c4.123,5.998,20.973,12.873,25.592,10.75c3.375,10.121,57.568,37.83,69.176,35.709
		c6.656,7.093,32.57,16.141,44.771,17.214v0.006l-55.479-5.116l-5.203-0.026c0,0-46.49,2.968-65.381,4.144l-19.762-9.25
		l-6.488-1.637l-41.967-4.585l-1.713,5.066l13.623,8.221l-18.316,9.748l1.195,5.153l35.51,1.184l-19.299,9.604l1.391,5.185
		l46.471-2.89l81.365,14.509l5.18,0.426l45.473-0.347l-162.795,327.54l2.686,4.336h119.322c-5.074,20.902-6.24,39.029-6.57,45.51
		c-2.504,2.748-7.498,7.988-7.002,12.986c-5.996-1.244-11.73,4.99-11.73,4.99c-2.471-0.652-5.072,0.119-7.072,1.324
		c-0.998,0.6-1.602,1.686-1.588,2.85c0.016,1.164,0.646,2.23,1.658,2.807l32.322,18.43c0.812,0.463,1.775,0.582,2.676,0.33
		c0.9-0.25,1.664-0.852,2.119-1.668c2.775-4.984,4.426-14.33,4.281-19.08c5.805-4.422,5.061-22.721,4.678-24.592
		c7.627-6.131,19.633-24.844,30.178-43.887h60.363l-2.27,26.58l0.271,0.246l-0.266,0.367l9.211,58.746l-56.344,21.963l0.48,5.301
		l60.842,11.727l4.854-1.59l36.986-123.34h18.852c-1.119,21.441,2.137,57.189,34.475,90.83c-1.26,6.787,0.291,13.982,3.027,18.918
		c-5.297,5.568-4.205,14.492-0.42,18.178c0.82,0.797,1.977,1.145,3.1,0.932l30.67-5.809c1.887-0.357,3.135-2.168,2.797-4.057
		l-0.889-4.969c0,0-1.771-2.896-9.662-5.738c-3.277-5.834-2.127-13.27-11.842-20.139c-0.432-8.928,0.891-53.188-10.43-88.146h63.877
		l38.225,89.531l5.148,0.555l37.652-22.1l0.059-4.688l-36.605-22.719l0.848-40.58H921.47l2.691-4.322L761.163,330.415
		c20.107-0.619,39.264-3.756,50.152-5.119c36.615,7.592,81.477-3.948,89.729-8.548c13.029,4.976,28.863-0.191,31.006-2.826
		c7.918,2.635,21.93,4.451,22.76,0.656c0.832-3.789-20.947-5.523-20.947-5.523v-0.908c2.467,0.66,27.553,2.308,27.711-1.649
		c0.168-3.957-26.387-2.804-26.387-2.804s0-0.988,0.156-2.475c7.926,0.494,29.197-0.169,29.852-3.132
		C965.865,293.14,945.406,293.962,935.679,293.634z M901.49,232.806l-27.07,12.354l7.562-11.196L901.49,232.806z M905.343,216.438
		l-16.918,7.987l6.734-9.969L905.343,216.438z M896.255,203.049l-4.6,6.809l-0.029,0.012l-13.66,19.906l0.014,0.015l-0.037,0.021
		l-8.594,12.945l-0.008-0.633l-0.234-22.698L896.255,203.049z M861.441,232.404l2.281-4.117l0.229,22.196l-24.762,22.232
		L861.441,232.404z M853.648,235.165l-24.85,44.843l-19.08-36.601C814.765,242.47,826.445,240.283,853.648,235.165z
		 M804.491,245.231l18.059,34.638l-42.527-19.949L804.491,245.231z M767.109,264.606l-23.859,29.34l-10.631-21.644L767.109,264.606z
		 M731.345,308.591l-29.408,36.169l8.672-38.974l6.689-30.065l9.297-2.074l12.488,25.423l-7.74,9.519L731.345,308.591z
		 M738.515,617.928l0.422,4.455l-39.352-53.374l31.094-33.633l1.99,20.959l-0.004,0.002L738.515,617.928z M696.105,564.705
		l-51.484-59.453l83.223,25.125L696.105,564.705z M640.06,498.154l36.787-88L727.89,524.67L640.06,498.154z M663.64,262.494
		l19.334-17.033l-6.357,22.387h-19.053L663.64,262.494z M650.79,266.515l-7.77-11.004l33.027-11.248L650.79,266.515z
		 M641.425,250.207l20.414-48.079l22.084,33.663L641.425,250.207z M648.767,218.254l-8.105-16.44l16.209-2.125L648.767,218.254z
		 M646.089,225.208l-6.871,16.183l-0.082-30.284L646.089,225.208z M639.148,273.673l0.064-11.649l17.072,19.581l-11.947-1.574
		l-5.223-0.688L639.148,273.673z M659.65,287.573l-20.428,75.562l-0.115-78.271L659.65,287.573z M662.031,299.755l11.439,98.842
		l-33.721-16.422L662.031,299.755z M639.247,388.023l33.994,16.555l-9.176,21.95l-24.947,59.677L639.247,388.023z M667.712,301.214
		l0.209,0.435l25.824,53.913l-15.465,36.966L667.712,301.214z M667.06,287.174l44.33-10.114l-15.598,70.098L667.06,287.174z
		 M639.105,95.541l85.006,173.049l-9.705,2.165l-0.008,0.008l-0.004-0.005l-50.295,11.476l-7.768-8.909h22.354l2.633-1.99
		l8.67-30.521l-0.422-6.407l-25.229-38.453l-4.846-2.131l-23.333,3.059l-0.219,0.406c-4.85-6.52-19.338-4.373-22.656,5.06
		c-10.039-2.24-14.945,3.351-13.758,11.798c-7.463-1.146-12.824,5.131-9.24,12.497c-7.008,1.876-9.746,10.434-2.955,16.726
		c-7.818,7.229-0.973,15.444,5.188,16.85c0.584,8.772,7.303,16.68,18.188,10.985c-0.785,2.05,0.201,9.386-0.182,9.424
		c-3.877-0.554-9.561,0.679-13.109,3.101c-8.811-8.616-32.307-12.915-46.709-10.329L639.105,95.541z M587.188,581.166l3.98,0.715
		l31.656,5.682l2.953,65.18L587.188,581.166z M624.772,660.559h-41.627l5.416-65.09L624.772,660.559z M623.116,581.986l-36.34-6.521
		l45.555-65.115L623.116,581.986z M585.419,567.74l0.873-13.664c1.318-1.297,2.713-2.453,4.182-3.387
		c4.475-2.385,9.189-5.9,13.828-9.939L585.419,567.74z M534.817,305.363l13.518,2.431l10.492,9.293l4.307,11.74l-40.131,0.307
		L534.817,305.363z M327.876,301.881l11.428-6.081l12.021,6.419l0.777,0.47L327.876,301.881z M348.212,316.679l14.838-7.384
		l9.707,5.858L348.212,316.679z M365.372,303.523l-0.225-0.013l0.027-0.104l-11.135-5.946l-19.625-11.844l31.518,3.443l9.434,20.932
		L365.372,303.523z M383.585,314.899l-10.266-22.776l50.334,23.563l21.939,10.271L383.585,314.899z M436.803,315.794l-35.574-16.654
		c36.854-2.299,50.359-3.169,55.43-3.541l5.396,32.017L436.803,315.794z M462.239,295.75l62.25,6.102l-56.73,26.645L462.239,295.75z
		 M480.005,329.461l10.959-4.421l36.316-17.994l-11.002,22.139L480.005,329.461z M358.278,660.559L520.27,334.631l45.385-0.347
		c5.16,10.568,11.434,20.215,15.461,24.833c-2.633,16.656,5.795,36.692,10.674,43.428c-5.342,7.854-6.564,24.104-3.758,35.22
		c-29.578,44.952-55.17,121.624-55.17,130.104c-6.746,3.982-16.484,14-17.598,25.243c-22.17,16.242-34.295,43.104-40.957,67.447
		H358.278z M519.977,660.559c10.506-19.602,18.797-38.184,18.432-42.252c14.787-6.564,32.029-32.975,34.096-40.842
		c0.574-1.832,3.33-9.027,7.752-15.828l-0.775,12.125l0.674,6.035l3.734,6.928l-6.305,73.834H519.977z M616.124,666.559
		L580.7,689.942l1.945-23.383H616.124z M538.626,776.137L584.7,758.18l0.529,4.4l2.77,23.072L538.626,776.137z M592.384,775.706
		l-2.609-21.734l-9.164-58.354l44.215-29.059h0.207L592.384,775.706z M631.766,660.559l-3.498-75.215l9.58-74.463l-1.715,14.258
		c3.784,21.219,2.7,61.471,12.776,78.038c-2.324,17.195-1.775,35.305,2.549,46.434c-0.27,2.332-0.863,6.086-1.326,10.949H631.766z
		 M688.407,660.559c-1.684-4.424-3.6-8.645-5.781-12.559c2.922-9.346,11.773-25.135,4.625-54.621
		c3.82-17.225,3.6-18.581,2.088-28.122l4.562,5.27l46.303,62.801l11.625,27.23H688.407z M745.195,630.342l-0.316-3.322
		l-5.539-58.362l50.088,88.831L745.195,630.342z M783.958,660.559h-26.174l-9.293-21.768L783.958,660.559z M799.765,714.141
		l28.969,17.977l-30.631,17.979L799.765,714.141z M794.234,666.864l-1.572,75.385l-32.314-75.689h33.389L794.234,666.864z
		 M916.654,660.559H797.445l-59.379-105.311l-2.268-23.902l-1.199-5.076l-54.852-123.056l19.371-46.306l24.037-29.563
		c9.764,2.347,20.592,3.185,31.377,3.177L916.654,660.559z M748.058,303.732l-2.148-4.371l29.072-35.756l45.688,21.432
		L748.058,303.732z"/>
</g>
</svg>
